<svg width="393" height="122" viewBox="0 0 393 122" fill="none" xmlns="http://www.w3.org/2000/svg">
<path d="M383.097 3.28098C384.061 1.66735 384.845 0.465474 384.845 0.465474C384.845 0.465474 384.151 1.40324 383.124 2.91283C382.133 4.44486 380.666 6.46206 379.18 8.6838C376.131 13.0709 372.593 18.0482 370.57 20.3156C368.319 22.9846 365.981 25.3312 363.747 27.5264C362.584 28.5754 361.454 29.5964 360.353 30.5898C359.265 31.5911 358.104 32.4521 357.032 33.3469C354.901 35.1505 352.719 36.6335 350.772 38.1526C348.763 39.5893 346.877 40.9374 345.108 42.2018C343.48 43.3104 341.991 44.4229 340.525 45.3733C339.061 46.3301 337.69 47.2273 336.403 48.0674C333.758 49.6308 331.519 51.1001 329.48 52.2011C328.475 52.7838 327.547 53.3218 326.691 53.8177C325.819 54.2877 325.02 54.7184 324.287 55.1128C322.815 55.8934 321.64 56.6147 320.63 57.0897C318.662 58.0918 317.58 58.6417 316.917 58.9784C316.308 59.2842 316.196 59.3221 316.196 59.3221C316.196 59.3221 317.02 59.0185 318.542 58.5567C319.312 58.3295 320.247 58.0537 321.327 57.7344C322.413 57.4133 323.621 56.9703 324.977 56.528C325.654 56.2986 326.363 56.06 327.102 55.8111C327.835 55.5487 328.58 55.2376 329.362 54.9336C330.914 54.3012 332.61 53.6906 334.3 52.8596C337.733 51.2998 341.418 49.382 345.076 47.0519C346.145 46.3674 347.22 45.6595 348.294 44.9293C349.336 44.1538 350.379 43.3568 351.42 42.5461C351.939 42.1374 352.459 41.7282 352.98 41.3173L354.481 40.002C355.473 39.113 356.467 38.221 357.462 37.3298C358.41 36.3882 359.356 35.4471 360.3 34.5083C360.767 34.035 361.246 33.5772 361.699 33.0951C362.146 32.6068 362.591 32.1194 363.036 31.634C363.922 30.664 364.802 29.7005 365.673 28.7471C366.511 27.7644 367.338 26.7915 368.156 25.8313C370.948 22.5502 373.401 19.2668 375.519 16.2164C376.066 15.4653 376.576 14.718 377.038 13.9688C377.514 13.2303 377.975 12.5126 378.42 11.8193C379.337 10.4488 380.102 9.11825 380.801 7.90602C381.495 6.69034 382.168 5.62079 382.686 4.63777C383.206 3.65855 383.655 2.81497 384.022 2.12513C384.759 0.775385 385.131 0.0942456 385.183 0C384.638 0.857001 384.082 1.73175 383.097 3.28098Z" fill="#343C59" fill-opacity="0.12"/>
<path d="M385.783 22.6913C385.932 22.4564 386.123 22.3082 386.114 22.3034C386.114 22.3034 385.906 22.4014 385.66 22.5815C385.439 22.7736 385.14 23.0289 384.88 23.3261C384.365 23.9177 384.066 24.7589 383.77 25.0901C383.111 25.8602 382.311 26.3696 381.569 26.7416C380.831 27.1239 380.181 27.4025 379.767 27.8275C379.387 28.2104 379.06 28.5605 378.798 28.9171C378.511 29.2411 378.281 29.5597 378.091 29.8615C377.682 30.4205 377.48 31.0019 377.28 31.3163C377.085 31.6384 377.002 31.8813 376.937 31.9769C376.876 32.0807 376.859 32.0854 376.859 32.0854C376.859 32.0854 376.976 32.0288 377.237 32.0193C377.498 32.0057 377.88 31.9899 378.386 31.9932C378.906 32.0238 379.481 31.9482 380.131 31.8425C380.749 31.6922 381.438 31.4963 382.046 31.1304C382.773 30.7196 383.304 29.9943 383.715 29.2109C384.113 28.41 384.409 27.5684 384.726 26.8311C385.005 26.2037 385.208 25.5828 385.399 25.036C385.564 24.4737 385.72 23.9849 385.814 23.5597C385.926 23.1577 386.016 22.8296 386.083 22.5915C386.149 22.3661 386.203 22.2506 386.203 22.2506C386.222 22.2582 385.987 22.4535 385.783 22.6913Z" fill="#343C59" fill-opacity="0.12"/>
<path d="M387.941 47.7387C387.947 47.5512 388.035 47.4005 388.025 47.4022C388.025 47.4022 387.897 47.5306 387.781 47.7342C387.68 47.9354 387.597 48.2094 387.57 48.5013C387.547 48.792 387.657 49.0729 387.748 49.3218C387.869 49.5614 387.979 49.7694 388.02 49.9212C388.198 50.6233 388.262 51.338 388.371 52.011C388.471 52.6836 388.658 53.2832 389.033 53.6258C389.371 53.9345 389.722 54.1536 390.061 54.2948C390.398 54.4398 390.698 54.5425 391.001 54.5597C391.146 54.574 391.279 54.5872 391.402 54.5987C391.539 54.5815 391.665 54.5646 391.782 54.5496C392.012 54.5125 392.191 54.483 392.344 54.4425C392.638 54.3823 392.824 54.2811 392.906 54.2634L393 54.2469C393 54.2469 392.927 54.2034 392.851 54.0328C392.771 53.8697 392.665 53.6257 392.599 53.2681C392.536 52.9058 392.47 52.5286 392.401 52.1289C392.311 51.7643 392.251 51.372 392.114 51.068C391.95 50.7143 391.612 50.5147 391.161 50.338C390.732 50.15 390.214 49.9569 389.87 49.6541C389.57 49.4025 389.274 49.1434 389.045 48.8758C388.797 48.6159 388.602 48.355 388.445 48.1281C388.135 47.6703 388.075 47.34 388.075 47.34C388.095 47.337 387.991 47.5257 387.941 47.7387Z" fill="#343C59" fill-opacity="0.12"/>
<path d="M302.957 62.7517L302.902 62.9095C302.898 62.9149 302.985 62.7763 303.088 62.6649C303.158 62.5579 303.345 62.4796 303.248 62.5246L303.266 62.5247L303.34 62.5321L303.428 62.5598L303.44 62.553C303.559 62.5679 303.825 62.7181 304.004 62.9583C304.089 63.0833 303.961 62.9007 303.934 62.7585C303.831 62.4248 303.874 62.146 303.904 62.1109L303.925 62.0751L303.899 62.1055L303.879 62.1191L303.987 62.053C304.159 61.9678 304.342 61.9281 304.402 61.9232L304.469 61.9228C304.469 61.9228 304.461 61.9015 304.535 61.801C304.596 61.6981 304.718 61.5357 304.755 61.2164C304.832 60.8803 304.667 60.4704 304.369 60.1181C304.211 59.9637 304.007 59.8199 303.823 59.7193C303.614 59.5969 303.401 59.5695 303.211 59.5408C302.723 59.5012 302.388 59.8346 302.219 60.2407C302.051 60.6623 302.039 61.1142 302.008 61.4716C301.979 61.768 302.033 62.0833 302.122 62.3212C302.232 62.5611 302.371 62.7292 302.519 62.7992C302.645 62.8833 302.743 62.9003 302.799 62.9245L302.87 62.9658C302.855 62.9803 302.914 62.8366 302.957 62.7517Z" fill="#343C59" fill-opacity="0.12"/>
<path d="M43.5227 61.1715C43.5426 61.2324 42.8657 61.0187 41.8813 60.2439C40.9183 59.4526 39.5904 58.1199 38.6955 55.8852C38.2961 54.8198 38.0244 53.525 38.1325 52.1094C38.2375 50.6988 38.7437 49.2075 39.6679 47.8695C41.2655 45.5141 44.3048 44.097 47.4077 44.0747C50.4178 43.9619 53.557 45.3233 55.5787 47.7602C56.6254 49.0134 57.4459 50.4897 57.83 52.0865C58.2211 53.6717 58.1661 55.3557 57.6578 56.8321C57.0744 58.5447 55.9639 59.9276 54.7096 60.8543C53.4507 61.7884 52.0768 62.2565 50.8652 62.4753C49.6131 62.7048 48.5048 62.6591 47.5784 62.5385C46.6565 62.4104 45.8963 62.2405 45.2949 62.0147C44.6932 61.808 44.245 61.6102 43.9595 61.4441C43.67 61.2846 43.5205 61.194 43.5242 61.169C43.5542 61.1008 44.1823 61.4701 45.3905 61.6319C45.9833 61.7219 46.735 61.6811 47.5262 61.4812C48.321 61.2756 49.1605 60.8461 49.8648 60.2086C50.556 59.5927 51.1105 58.8087 51.5112 57.9975C51.903 57.182 52.2302 56.3421 52.3565 55.4588C52.4732 54.7038 52.5403 53.937 52.4821 53.1146C52.4332 52.2955 52.2184 51.4316 51.7586 50.6533C51.3255 49.9059 50.5848 49.3662 49.792 49.0438C48.9796 48.7162 48.1688 48.5736 47.336 48.4483C45.566 48.1641 43.7051 48.8732 42.3607 50.0611C41.5691 50.749 40.9169 51.6192 40.4312 52.5709C39.9547 53.5259 39.7328 54.6045 39.811 55.6002C39.9406 57.6733 41.0489 59.2182 41.9507 60.0168C42.8724 60.8388 43.5368 61.1107 43.5227 61.1715Z" fill="#343C59" fill-opacity="0.12"/>
<path d="M61.444 61.4557C61.3985 61.4747 61.5054 61.167 61.7418 60.5707C61.9947 59.9846 62.3179 59.0764 62.5984 57.8823C62.9006 56.6899 63.0273 55.1686 62.9078 53.4538C62.7666 51.7372 62.2549 49.8075 61.2336 47.9688C59.3132 44.4086 55.4665 41.2907 50.8135 40.3285C48.8128 39.9374 46.7032 39.895 44.6219 40.2933C42.5392 40.6749 40.5013 41.5641 38.8107 42.9295C37.1894 44.2369 35.8692 45.9097 34.9823 47.7859C34.0928 49.6662 33.6975 51.7245 33.7216 53.7279C33.7481 55.8213 34.3107 57.8546 35.238 59.6045C36.1568 61.3686 37.36 62.8882 38.7168 64.1918C41.871 67.1968 46.1926 68.8748 50.1643 68.6371C52.1945 68.5293 54.0594 67.9635 55.567 67.1812C57.062 66.3822 58.2784 65.462 59.0967 64.5426C60.7915 62.7391 61.3614 61.4046 61.4425 61.4582C61.4425 61.4582 60.9384 62.7963 59.4025 64.8063C58.6479 65.8268 57.5485 66.9291 56.1411 68.0708C54.7206 69.1967 52.9117 70.3075 50.6788 71.0683C48.5152 71.8086 45.9331 72.1898 43.2057 71.8173C40.4798 71.4423 37.6512 70.3372 35.2307 68.4083C33.1298 66.7582 31.4106 64.4967 30.3137 61.9205C29.1995 59.3543 28.7586 56.4827 28.9368 53.658C29.0933 50.944 29.705 48.2286 30.8847 45.7381C32.0681 43.2601 33.8827 41.0339 36.1343 39.4735C40.7836 36.1492 46.784 35.3939 51.6086 36.9542C54.4257 37.816 56.7832 39.4739 58.5357 41.3615C60.3019 43.2642 61.4702 45.3851 62.2319 47.4084C63.0048 49.4883 63.3076 51.5005 63.3355 53.254C63.3505 55.01 63.1838 56.5412 62.8489 57.7501C62.7256 58.3659 62.532 58.8915 62.3762 59.3548C62.2308 59.8198 62.0677 60.2015 61.9175 60.5057C61.6273 61.1159 61.4629 61.4433 61.444 61.4557Z" fill="#343C59" fill-opacity="0.12"/>
<path d="M43.7252 70.0038C41.685 69.6218 40.2375 68.9367 40.1753 69.058C40.1753 69.058 40.3807 69.1688 40.7715 69.3488C41.1556 69.5395 41.7593 69.7054 42.4894 69.9626C43.9759 70.3772 46.1312 70.7381 48.532 70.5061C50.9316 70.2575 53.5395 69.4399 55.7227 68.03C57.9185 66.6368 59.6901 64.7627 60.8134 62.965L60.3462 62.724C59.8116 64.0186 59.2247 65.0998 58.6865 65.8755C56.5997 69.0009 53.439 71.0305 50.2465 71.9879C48.647 72.4908 47.0009 72.6394 45.4275 72.6117C43.8402 72.5882 42.3212 72.2834 40.9172 71.8075C38.0779 70.8698 35.7398 69.1612 34.0348 67.1763C32.2948 65.1929 31.265 62.8811 30.7034 60.6587C30.1007 58.298 30.1432 55.9783 30.5611 53.9201C30.9821 51.857 31.7834 50.047 32.7562 48.5352L31.7522 48.0177C30.7264 50.6855 30.4712 53.2625 30.6414 55.4748C30.839 57.6981 31.4159 59.5765 32.1439 61.0932C33.6126 64.1241 35.3523 65.7893 36.6112 66.786C37.227 67.3068 37.7871 67.6007 38.1894 67.874C38.6159 68.1074 38.9437 68.2413 39.173 68.3314C39.6441 68.5101 39.7737 68.4648 39.8348 68.3451C39.9695 68.1416 37.5373 67.1506 34.9941 63.906C33.7581 62.2905 32.5417 60.0803 32.0082 57.3616C31.4247 54.6693 31.6124 51.4915 32.8053 48.4355L31.8184 47.9272C30.9284 49.3211 30.2101 50.8815 29.7159 52.5595C29.2506 54.2459 29.0655 56.0511 29.1586 57.8657C29.195 59.2678 29.534 60.6578 29.9304 62.0281C30.4124 63.3697 30.9787 64.7033 31.8043 65.9088C33.3694 68.3496 35.6748 70.3371 38.29 71.6445C40.9241 72.9021 43.8729 73.528 46.7424 73.2722C49.6072 73.0805 52.3501 72.0778 54.6385 70.5692C56.0899 69.5984 57.3495 68.4194 58.3974 67.1212C59.4249 65.8003 60.2139 64.3668 60.8131 62.9092L60.3978 62.695C58.5543 65.5125 55.9941 67.5447 53.4106 68.6406C50.8278 69.7914 48.2724 70.0535 46.2099 69.9521C42.0314 69.6874 39.8643 68.2028 39.8348 68.3451C39.6949 68.5761 41.502 69.5302 43.7252 70.0038Z" fill="#343C59" fill-opacity="0.12"/>
<path d="M47.4606 48.8611C48.5005 49.038 49.253 49.352 49.3142 49.2323C49.3197 49.2232 49.2248 49.1736 49.0476 49.0912C48.8734 49.0038 48.5937 48.9218 48.2569 48.8029C47.5791 48.6092 46.589 48.425 45.4597 48.4893C44.3297 48.536 43.0869 48.8813 41.9765 49.4579C40.8694 50.0479 39.9176 50.8875 39.2536 51.7585L39.7385 52.008C39.9848 51.0203 40.4286 50.2317 40.7802 49.7076C41.8129 48.1719 43.3779 47.1824 44.9414 46.7203C46.5284 46.2757 48.1473 46.3593 49.5067 46.8525C52.3047 47.8209 53.9212 50.1769 54.4106 52.3123C55.0405 54.9656 54.1576 57.3224 52.967 58.7625L53.9622 59.2758C54.6907 56.5925 54.0495 54.389 53.3077 52.9889C52.5342 51.5661 51.6749 50.7911 51.0523 50.3377C50.4199 49.8818 50.0136 49.7277 49.7679 49.6833C49.5247 49.6347 49.4376 49.7035 49.3785 49.8198C49.2833 49.9769 50.3538 50.4971 51.5084 51.9657C52.0727 52.7028 52.6475 53.6849 52.9434 54.9023C53.2691 56.1082 53.2864 57.5419 52.8772 58.9671L53.8381 59.4618C55.0861 57.9645 55.8634 55.8379 55.7361 53.63C55.6263 50.7182 53.7198 47.8287 50.9855 46.549C48.2587 45.2194 44.9277 45.5807 42.6245 47.17C40.8931 48.3404 39.7229 50.1028 39.2531 51.8717L39.6426 52.0725C40.6164 50.8589 41.8575 50.0105 43.0768 49.5726C44.3005 49.109 45.4734 49.0291 46.4232 49.0924C48.3486 49.2515 49.3518 49.9014 49.3785 49.8198C49.5161 49.5739 48.5844 49.1059 47.4606 48.8611Z" fill="#343C59" fill-opacity="0.12"/>
<path d="M79.9623 59.7609C79.6439 59.7054 79.4019 59.5985 79.4019 59.5985C79.4019 59.5985 79.5946 59.7493 79.8992 59.9214C80.2084 60.086 80.6182 60.2719 81.0567 60.3729C81.9361 60.6274 82.9788 60.5936 83.469 60.7407C84.6099 61.0697 85.5462 61.6427 86.3204 62.2208C87.1021 62.7865 87.7345 63.3173 88.3958 63.5567C89.5889 64.0059 90.5569 64.2641 91.3582 64.4225C92.1721 64.5602 92.7914 64.6253 93.2453 64.6448C93.6777 64.6808 93.9547 64.6737 94.0874 64.6984C94.2157 64.7115 94.2289 64.7274 94.2289 64.7274C94.2289 64.7274 94.1138 64.6361 93.963 64.3789C93.8066 64.1308 93.6125 63.7201 93.3252 63.2382C92.8017 62.2464 91.9044 60.9156 90.5537 60.0142C89.7692 59.4719 88.7781 59.2519 87.7733 59.1667C86.7576 59.0998 85.7506 59.1496 84.8282 59.1348C83.2558 59.1055 81.8589 59.2552 80.8751 59.3792C80.3975 59.4362 80.0063 59.482 79.7168 59.5099C79.45 59.5379 79.3048 59.534 79.3048 59.534C79.305 59.5148 79.6174 59.6553 79.9623 59.7609Z" fill="#343C59" fill-opacity="0.12"/>
<path d="M17.2115 42.2104C17.762 41.6206 18.2259 41.2111 18.2259 41.2111C18.2259 41.2111 16.5063 42.3431 14.9933 44.1092C13.4183 45.8274 12.0602 48.1439 11.356 49.2687C9.68089 51.827 8.27775 54.2741 7.35815 56.7291C6.4529 59.1792 6.1581 61.6527 6.48987 63.7482C6.803 65.6496 7.3749 67.1615 7.90169 68.4291C8.42947 69.695 8.96472 70.7235 9.40487 71.6092C10.2967 73.3615 10.9076 74.5654 11.3039 75.4484C11.6801 76.3271 11.8655 76.8461 11.9332 77.1279C12.0211 77.414 12.0146 77.4623 12.0146 77.4623C12.0146 77.4623 12.0125 77.0908 12.0772 76.403C12.1088 75.7134 12.1693 74.695 12.1085 73.4269C12.0467 72.1605 11.854 70.6603 11.589 69.0731C11.3157 67.4809 10.9709 65.8193 10.7507 64.1957C10.4864 62.3262 10.314 60.4362 10.4417 58.3885C10.5514 56.3515 11.0101 54.226 11.7868 52.3068C13.1108 49.0156 14.8604 46.1844 16.1763 44.2001C17.4967 42.2083 18.4371 41.0687 18.4371 41.0687C18.4371 41.0687 18.2974 41.2055 18.0691 41.4136C17.8413 41.6209 17.5249 41.8994 17.2115 42.2104Z" fill="#343C59" fill-opacity="0.12"/>
<path d="M24.1444 29.1749C23.9959 29.1951 23.8513 29.1337 23.8561 29.1445C23.8561 29.1445 23.9982 29.2476 24.1857 29.3317C24.3637 29.3941 24.5988 29.456 24.8224 29.4619C25.2652 29.4622 25.6118 29.0963 25.8444 29.0499C26.3685 28.9347 26.9294 29.0213 27.4374 29.1201C27.9465 29.2173 28.3912 29.2891 28.6797 29.113C28.937 28.9508 29.1404 28.7651 29.3022 28.5542C29.4751 28.3626 29.6147 28.17 29.7042 27.9471C29.7558 27.8432 29.8028 27.7467 29.8454 27.6578C29.871 27.5405 29.9 27.4365 29.9254 27.3383C29.9702 27.1519 30.0077 26.9963 30.0437 26.8432C30.1169 26.5911 30.1274 26.3862 30.1491 26.313L30.1763 26.2307C30.1917 26.2616 29.8858 26.2228 29.28 25.9103C28.9676 25.7323 28.628 25.5992 28.2526 25.4502C27.9032 25.352 27.517 25.2395 27.1729 25.2639C26.3618 25.2903 26.014 26.5392 25.4756 27.184C25.0283 27.7535 24.6241 28.2708 24.3269 28.6301C24.0233 28.9812 23.7897 29.1043 23.7897 29.1043C23.7874 29.0893 23.9634 29.155 24.1444 29.1749Z" fill="#343C59" fill-opacity="0.12"/>
<path d="M189.008 113.579C188.866 113.554 190.628 112.84 193.113 110.637C195.591 108.479 198.761 104.801 200.944 99.6783C201.994 97.2152 202.742 94.4631 203.203 91.3846C203.698 88.3229 204.051 84.9687 204.651 81.4108C205.158 78.3438 205.867 75.1446 206.846 71.9568C207.848 68.7913 209.157 65.5837 211.381 62.8719C213.518 60.2184 216.508 58.4717 219.201 56.7195C221.931 54.9531 224.658 53.1817 227.416 51.5277C230.296 49.8296 233.147 48.1479 235.943 46.4983C238.738 44.8506 241.486 43.2481 244.206 41.8067C247.357 40.1383 250.449 38.6338 253.392 37.2409C254.866 36.5543 256.298 35.8856 257.683 35.2347C258.377 34.9093 259.058 34.5932 259.727 34.2864C260.061 34.133 260.393 33.9794 260.72 33.8258C261.205 33.5804 261.685 33.3446 262.16 33.1183C262.636 32.8726 263.108 32.6365 263.573 32.4099C264.025 32.1926 264.488 31.9268 264.899 31.7567C265.15 36.9931 265.002 38.453 264.745 40.7782C264.496 42.9005 264.103 44.7037 263.743 46.1634C262.993 49.0766 262.387 50.6392 262.387 50.6392C262.379 50.636 262.399 50.5333 262.442 50.3336C262.488 50.1224 262.551 49.8307 262.633 49.4508C262.789 48.6742 263 47.5284 263.171 46.0547C263.336 44.5809 263.46 42.7772 263.419 40.7084C263.405 39.6722 263.337 38.5755 263.222 37.4183C263.191 37.124 263.167 36.8398 263.125 36.5451C263.11 36.437 263.111 36.4078 263.113 36.3785C263.113 36.359 263.115 36.3395 263.113 36.3101L263.076 36.1427L263.026 35.7988L262.94 35.522L262.959 35.4348L262.922 35.4627L262.84 35.5182L262.68 35.6391C262.569 35.7229 262.471 35.8071 262.397 35.8824L262.27 35.9949C262.228 36.0323 262.224 36.0517 262.024 36.1711C261.718 36.3647 261.409 36.5582 261.098 36.7515C260.472 37.1479 259.836 37.5341 259.187 37.9393C257.885 38.7399 256.538 39.5583 255.152 40.4046C252.37 42.0791 249.411 43.8114 246.294 45.5348C240.901 48.4928 235.029 51.3925 229.081 54.4271C226.209 55.8589 223.309 57.3052 220.407 58.7534C217.495 60.1827 214.588 61.4822 212.542 63.7553C210.383 66.0963 209.139 69.1891 208.556 72.2757C207.966 75.3826 207.981 78.5261 207.939 81.5815C207.926 85.1206 207.675 88.6193 206.902 91.9069C206.155 95.1914 204.93 98.2312 203.494 100.793C200.532 106.089 196.615 109.304 193.776 111.122C192.35 112.052 191.141 112.619 190.326 113.02C189.488 113.381 189.038 113.579 189.008 113.579Z" fill="#343C59" fill-opacity="0.12"/>
<path d="M263.212 48.7616C263.224 48.7211 263.328 48.9878 263.571 49.5129C263.827 50.0335 264.163 50.8327 264.577 51.8918C265.349 54.004 266.303 57.3083 266.044 61.4819C265.905 63.4755 265.492 65.6463 264.665 67.8297C263.836 70.0043 262.492 72.1563 260.66 73.9451C259.105 75.4971 257.28 76.7361 255.547 78.0498C253.805 79.3554 252.116 80.755 250.608 82.342C249.15 83.8743 247.941 85.5665 247.007 87.4498C246.04 89.3192 245.132 91.4058 243.566 93.2291C240.331 96.9664 235.861 99.2325 231.663 100.226C229.211 100.795 226.807 100.972 224.585 100.981C222.364 100.995 220.308 100.874 218.423 100.786C214.549 100.571 211.383 100.445 209.162 100.577C208.055 100.639 207.189 100.734 206.604 100.823C206.325 100.867 206.106 100.902 205.938 100.929C205.787 100.953 205.709 100.963 205.707 100.955C205.704 100.946 205.779 100.919 205.924 100.87C206.085 100.815 206.296 100.744 206.568 100.653C207.135 100.467 207.976 100.207 209.066 99.927C211.239 99.3441 214.446 98.7652 218.286 98.2357C222.018 97.6924 226.292 97.2156 230.59 96.0909C232.453 95.6174 234.325 95.0377 236.137 94.2428C237.934 93.4307 239.642 92.3554 241.1 90.9726C242.528 89.6892 243.668 87.9357 245.007 86.1899C246.331 84.4063 247.95 82.7952 249.544 81.3491C251.211 79.8355 252.869 78.386 254.325 76.8126C255.788 75.2492 257.029 73.569 258.05 71.9391C259.21 70.0496 260.245 68.26 261.188 66.4776C262.131 64.703 262.874 62.8965 263.279 61.1454C264.117 57.5556 264.091 54.3999 263.845 52.2197C263.712 51.1303 263.571 50.2652 263.419 49.6869C263.284 49.1025 263.205 48.7829 263.212 48.7616Z" fill="#343C59" fill-opacity="0.12"/>
<path d="M259.637 44.6029C260.194 44.0554 260.685 43.5719 261.051 43.2106C261.406 42.8626 261.632 42.6621 261.61 42.6417C261.61 42.6417 260.81 43.2171 259.64 44.22C258.458 45.2118 256.93 46.6535 255.354 48.2712C252.202 51.5036 248.921 55.4854 247.194 57.3729C245.205 59.5435 243.32 61.6018 241.53 63.5553C239.728 65.4936 238.035 67.3375 236.51 69.1477C233.472 72.7801 230.824 76.0307 228.152 78.6023C225.747 80.9487 223.369 82.7783 221.462 84.5662C219.533 86.3336 218.037 88.0286 216.728 89.4854C215.422 90.9551 214.389 92.2408 213.501 93.2397C212.61 94.2474 211.839 95.0065 211.157 95.5629C209.794 96.6846 208.82 97.0394 208.294 97.2256C207.755 97.383 207.65 97.4201 207.652 97.468C207.653 97.4817 207.836 97.4828 208.193 97.4924C208.546 97.4912 209.075 97.4643 209.75 97.3297C211.108 97.092 213.008 96.232 214.961 94.7293C216.911 93.2098 218.948 91.3038 221.176 89.0992C223.411 86.9135 225.424 84.1097 227.563 81.215C230.067 77.828 233.171 74.6875 236.338 71.6032C239.532 68.5423 242.386 65.1725 245.195 62.0677C249.989 56.7501 254.08 51.7243 257.135 48.1726C260.162 44.5954 262.106 42.4524 262.106 42.4524C262.056 42.4046 260.897 43.4177 259.637 44.6029Z" fill="#343C59" fill-opacity="0.12"/>
<path d="M259.039 59.6081C259.227 59.2596 259.358 59.0164 259.52 58.7177C259.52 58.7177 258.842 59.9542 257.978 61.3458C257.126 62.7458 256.039 64.2658 255.441 64.9739C254.08 66.6173 252.617 67.8769 251.178 68.7651C249.747 69.677 248.348 70.0901 247.09 70.3002C244.805 70.6933 243.025 70.3737 241.736 70.0737C240.436 69.7558 239.593 69.3838 238.994 69.1764C238.394 68.9651 238.049 68.872 237.796 68.9307C237.545 68.9876 237.398 69.1765 237.246 69.4521C237.065 69.7559 237.871 70.6169 239.563 71.3093C241.234 71.995 243.813 72.4493 246.541 71.8953C248.133 71.5942 249.72 70.8504 251.065 69.8453C252.37 68.8289 253.54 67.6842 254.541 66.5156C256.264 64.5234 257.487 62.4909 258.322 61.0063C259.149 59.5145 259.605 58.5656 259.605 58.5656C259.254 59.2127 259.226 59.2635 259.039 59.6081Z" fill="#343C59" fill-opacity="0.12"/>
<path d="M244.954 82.0688C245.494 81.7171 245.753 81.2903 245.753 81.2903C245.753 81.2903 245.547 81.638 245.035 81.9889C244.533 82.3499 243.739 82.6559 242.899 83.0236C241.217 83.7717 239.303 84.6224 238.365 85.0391C233.991 86.9747 230.392 88.2236 227.587 89.3199C225.06 90.3554 223.139 91.0025 221.664 91.2905C220.191 91.598 219.198 91.5858 218.519 91.601C217.839 91.6084 217.459 91.6224 217.22 91.7443C216.981 91.8671 216.887 92.0882 216.817 92.3952C216.775 92.5715 217.033 92.8089 217.579 93.023C218.122 93.237 218.96 93.3832 219.989 93.3519C221.018 93.3245 222.22 93.0955 223.467 92.6807C224.722 92.275 226.018 91.6861 227.327 91.0382C230.37 89.5016 233.654 87.6273 236.718 86.1451C239.33 84.8608 241.704 83.7296 243.425 82.9205C244.291 82.5293 244.977 82.1567 245.358 81.7784C245.743 81.4071 245.856 81.1261 245.856 81.1261C245.856 81.1261 245.786 81.2671 245.637 81.4568C245.487 81.6485 245.246 81.8767 244.954 82.0688Z" fill="#343C59" fill-opacity="0.12"/>
<path d="M239.355 56.1475C239.802 55.6955 240.088 55.4053 240.364 55.1257C240.294 55.1953 240 55.4842 239.443 56.0317C238.867 56.5764 238.14 57.3783 237.349 58.2364C235.798 59.9781 234.156 62.0779 233.378 63.1475C231.542 65.5769 229.971 67.8152 228.596 69.8469C227.211 71.8734 226.023 73.6983 225.042 75.3542C223.273 78.3587 222.024 80.7186 221.096 82.5357C220.165 84.3518 219.584 85.6389 219.221 86.5435C218.515 88.3622 218.72 88.67 219.301 88.9128C219.658 89.0612 220.488 87.7621 221.608 85.5966C222.162 84.5107 222.802 83.214 223.496 81.7719C224.197 80.3291 224.963 78.7521 225.764 77.1011C226.701 75.1651 227.717 73.1363 228.774 71.1228C229.863 69.131 230.988 67.1494 232.195 65.3584C233.209 63.8161 234.234 62.3857 235.204 61.1153C236.177 59.8479 237.079 58.7234 237.885 57.8229C238.67 56.904 239.343 56.1939 239.814 55.7096C240.255 55.2505 240.466 55.03 240.54 54.9537C239.942 55.5562 239.807 55.6918 239.355 56.1475Z" fill="#343C59" fill-opacity="0.12"/>
<path d="M227.926 62.6613C227.931 62.6595 227.926 62.6866 227.92 62.7411C227.915 62.7956 227.908 62.8765 227.909 62.984C227.904 63.1997 227.914 63.5156 227.876 63.8835C227.837 64.2376 227.776 64.6466 227.516 65.0256C227.303 65.3556 227.039 65.6953 226.962 66.1046C226.869 66.4919 226.871 66.917 226.801 67.311C226.709 67.7149 226.645 68.1198 226.517 68.4775C226.361 68.8897 226.128 69.2424 225.954 69.5533C225.8 69.8122 225.652 70.0645 225.505 70.3139C225.4 70.4965 225.356 70.6053 225.356 70.6053C225.356 70.6053 225.39 70.1259 225.47 69.3972C225.516 69.0452 225.572 68.6361 225.704 68.217C225.821 67.8561 225.999 67.4887 226.164 67.1091C226.311 66.8001 226.534 66.3327 226.684 66.0208C226.866 65.6467 226.863 65.2216 226.894 64.832C226.906 64.3743 227.193 64.0393 227.346 63.7228C227.678 63.0788 227.926 62.6613 227.926 62.6613Z" fill="#343C59" fill-opacity="0.12"/>
<path d="M234.74 91.5324C234.728 91.531 234.833 91.4431 234.987 91.2408C235.144 91.0426 235.361 90.7422 235.661 90.4175C235.95 90.107 236.299 89.7549 236.801 89.5355C237.228 89.3378 237.706 89.1585 238.067 88.8156C238.428 88.502 238.734 88.1013 239.081 87.7677C239.454 87.4369 239.804 87.0896 240.176 86.8214C240.611 86.5165 241.068 86.3101 241.443 86.1123C241.774 85.9461 242.084 85.7889 242.38 85.6399C242.602 85.5252 242.72 85.4476 242.72 85.4476C242.72 85.4476 242.34 85.8816 241.742 86.5243C241.447 86.8306 241.101 87.1838 240.686 87.5071C240.323 87.7825 239.906 88.0305 239.488 88.298C239.121 88.5186 238.62 88.82 238.25 89.0424C237.822 89.2948 237.517 89.6945 237.211 90.0424C236.873 90.4634 236.38 90.6255 236.016 90.8422C235.26 91.2698 234.74 91.5324 234.74 91.5324Z" fill="#343C59" fill-opacity="0.12"/>
<path d="M237.835 80.5561C237.816 80.5544 238.107 80.4424 238.616 80.1979C239.227 79.8977 239.936 79.5504 240.745 79.1521C241.601 78.7401 242.597 78.2581 243.736 77.8734C244.723 77.5494 245.776 77.1868 246.752 76.622C247.699 76.0972 248.592 75.4392 249.492 74.8442C250.424 74.2191 251.324 73.6164 252.192 73.0338C253.19 72.417 254.147 71.8261 254.965 71.3207C256.629 70.2799 257.65 69.5048 257.65 69.5048C257.65 69.5048 257.42 69.7286 257.015 70.1245C256.613 70.5245 256.015 71.0773 255.271 71.7261C254.545 72.3532 253.678 73.0676 252.673 73.7408C251.807 74.3264 250.833 74.8668 249.842 75.4134C248.886 75.934 247.883 76.4109 246.9 76.8728C245.871 77.3389 244.938 77.9464 244.027 78.4639C242.98 79.0866 241.876 79.3524 240.971 79.6609C240.038 79.9655 239.257 80.19 238.706 80.3283C238.289 80.4375 238.063 80.4964 237.835 80.5561Z" fill="#343C59" fill-opacity="0.12"/>
<path d="M258.82 63.5945C258.809 63.5921 258.857 63.5177 258.895 63.3501C258.94 63.1867 258.98 62.9382 259.065 62.6688C259.145 62.4071 259.242 62.1186 259.509 61.8875C259.734 61.685 259.999 61.4664 260.079 61.1548C260.172 60.8633 260.157 60.5287 260.201 60.2304C260.264 59.9251 260.29 59.6193 260.368 59.3487C260.471 59.0371 260.639 58.761 260.753 58.5113C261.015 58.0025 261.11 57.6427 261.11 57.6427C261.11 57.6427 261.2 58.0095 261.254 58.5948C261.272 58.8768 261.282 59.2123 261.197 59.5549C261.125 59.8511 260.977 60.1455 260.834 60.443C260.692 60.7267 260.517 61.0015 260.348 61.2657C260.164 61.5372 260.151 61.8786 260.087 62.1879C260.039 62.5612 259.721 62.7562 259.534 62.9601C259.128 63.3716 258.82 63.5945 258.82 63.5945Z" fill="#343C59" fill-opacity="0.12"/>
<path d="M260.592 48.8029C260.602 48.8023 260.586 48.8661 260.614 48.9991C260.634 49.1308 260.682 49.327 260.687 49.548C260.691 49.7602 260.681 50.004 260.477 50.2014C260.313 50.3759 260.099 50.5496 260.073 50.7899C260.049 50.9189 260.054 51.0598 260.06 51.2007C260.065 51.3055 260.07 51.4111 260.061 51.5105C260.02 51.7463 260.007 51.9871 259.926 52.1892C259.826 52.4228 259.644 52.6074 259.513 52.7754C259.407 52.9013 259.293 53.0377 259.172 53.1816C259.093 53.2802 259.071 53.3428 259.064 53.3406C259.064 53.3406 259.041 53.0505 259.031 52.6134C259.033 52.4025 259.04 52.1585 259.116 51.9191C259.186 51.7127 259.313 51.5114 259.427 51.2998C259.512 51.1623 259.71 50.8425 259.797 50.7003C259.928 50.4952 259.875 50.2333 259.859 49.9982C259.817 49.7182 260.052 49.5513 260.161 49.3766C260.405 49.0263 260.592 48.8029 260.592 48.8029Z" fill="#343C59" fill-opacity="0.12"/>
<path d="M259.13 40.194C259.14 40.2042 259.083 40.2703 259.02 40.4243C258.953 40.578 258.87 40.8192 258.738 41.0682C258.61 41.3036 258.452 41.5712 258.136 41.7322C257.871 41.8765 257.56 42.0151 257.4 42.2894C257.231 42.5399 257.145 42.861 257.007 43.1293C256.846 43.3978 256.717 43.6782 256.542 43.9022C256.332 44.156 256.067 44.3443 255.861 44.5241C255.414 44.8774 255.17 45.1465 255.17 45.1465C255.17 45.1465 255.257 44.7834 255.438 44.2422C255.533 43.984 255.651 43.6827 255.847 43.4049C256.018 43.1662 256.25 42.9503 256.476 42.7234C256.696 42.509 256.94 42.3072 257.172 42.1069C257.419 41.9024 257.519 41.5817 257.646 41.3033C257.774 40.9632 258.114 40.8491 258.333 40.6913C258.797 40.3767 259.13 40.194 259.13 40.194Z" fill="#343C59" fill-opacity="0.12"/>
<path d="M256.986 51.0041C256.997 50.9997 256.96 51.1292 256.947 51.3807C256.925 51.63 256.922 51.9963 256.875 52.4224C256.83 52.835 256.77 53.3055 256.528 53.776C256.327 54.1836 256.088 54.6229 256.053 55.1101C256.001 55.5761 256.062 56.064 256.06 56.529C256.052 56.7182 256.049 56.9066 256.047 57.0912C256.044 57.3783 256.04 57.6576 256.017 57.9244C255.957 58.4331 255.831 58.9031 255.754 59.3115C255.568 60.1515 255.526 60.7088 255.526 60.7088C255.526 60.7088 255.385 60.164 255.245 59.3049C255.188 58.8885 255.129 58.3969 255.164 57.8696C255.193 57.4135 255.298 56.9368 255.396 56.452C255.497 55.9869 255.633 55.5201 255.765 55.066C255.877 54.7058 255.881 54.3299 255.885 53.9656C255.887 53.8543 255.888 53.744 255.892 53.6357C255.884 53.0912 256.179 52.6627 256.341 52.2781C256.695 51.4933 256.986 51.0041 256.986 51.0041Z" fill="#343C59" fill-opacity="0.12"/>
<path d="M199.295 64.1126L199.378 63.8617C199.383 63.8502 199.296 64.0559 199.137 64.0929C198.994 64.1158 198.883 63.9875 198.764 63.9527C198.543 63.8935 198.266 64.0111 198.303 63.9558L198.299 63.9645L198.308 63.9598L198.312 63.959L198.398 63.974L198.397 63.973L198.397 63.971L198.395 63.9631L198.393 63.9484L198.376 63.8257C198.366 63.7344 198.421 63.7717 198.435 63.7439L198.512 63.6452C198.63 63.5226 198.803 63.4208 198.983 63.3172C199.351 63.1123 199.732 62.907 199.867 62.5379C199.922 62.3964 200.022 62.1208 200.069 61.9086C200.134 61.6883 200.147 61.4612 200.157 61.2466C200.184 60.8207 200.143 60.4195 200.009 60.0667C199.951 59.8915 199.885 59.7308 199.811 59.5853C199.712 59.4409 199.611 59.3159 199.508 59.2105C199.304 58.9995 199.112 58.8661 198.946 58.7856C198.632 58.6154 198.399 58.6603 198.314 58.6493C198.222 58.6477 198.218 58.6378 198.218 58.6378C198.218 58.6378 198.283 58.7038 198.275 58.8842C198.274 59.0552 198.198 59.3073 197.96 59.5112C197.703 59.7164 197.428 59.8623 197.107 59.9927C196.833 60.1347 196.507 60.2582 196.29 60.4327C195.986 60.7172 195.801 61.3705 195.825 62.1228C195.847 62.8973 196.028 63.7689 196.545 64.573L196.669 64.6988L196.698 64.7264L196.705 64.7334L196.709 64.7365C196.763 64.846 196.728 64.7714 196.742 64.7983L196.771 64.8297L196.887 64.9533C197.034 65.1172 197.233 65.2204 197.408 65.2955C197.774 65.4403 198.086 65.413 198.343 65.371C198.85 65.2359 199.187 64.9916 199.387 64.7042C199.598 64.4279 199.606 64.1263 199.525 63.9884C199.456 63.848 199.403 63.7884 199.409 63.7838C199.424 63.7707 199.405 64.0191 199.295 64.1126Z" fill="#343C59" fill-opacity="0.12"/>
</svg>
