<svg width="307" height="228" viewBox="0 0 307 228" fill="none" xmlns="http://www.w3.org/2000/svg">
<circle cx="156.003" cy="67.4274" r="23.8822" fill="white"/>
<circle cx="203.029" cy="28.2799" r="11.3256" fill="white"/>
<circle cx="212.631" cy="91.5557" r="10.587" fill="white"/>
<circle cx="141.231" cy="136.858" r="14.0339" fill="white"/>
<circle cx="86.5724" cy="88.6013" r="14.0339" fill="white"/>
<circle cx="110.947" cy="24.8332" r="10.8332" fill="white"/>
<line x1="174.915" y1="47.4719" x2="195.015" y2="32.0181" stroke="white" stroke-width="5"/>
<line x1="180.182" y1="78.5965" x2="204.328" y2="86.6278" stroke="white" stroke-width="5"/>
<line x1="151.739" y1="93.892" x2="143.971" y2="126.578" stroke="white" stroke-width="5"/>
<line x1="130.892" y1="76.955" x2="97.2796" y2="87.3876" stroke="white" stroke-width="5"/>
<line x1="136.87" y1="49.3603" x2="115.886" y2="30.876" stroke="white" stroke-width="5"/>
<path d="M4.88291 202.357V166.528H16.2275C19.0554 166.528 21.5216 166.905 23.6261 167.661C25.7635 168.384 27.4076 169.517 28.5585 171.062C29.7423 172.606 30.3342 174.593 30.3342 177.025C30.3342 178.635 30.0382 180.113 29.4463 181.46C28.8544 182.774 27.9994 183.925 26.8815 184.91C25.7963 185.863 24.4481 186.635 22.8369 187.227C23.8892 187.719 24.7441 188.491 25.4017 189.543L33.5895 202.357H26.7335C25.4182 202.357 24.4974 201.864 23.9713 200.878L17.3126 189.986C17.0495 189.56 16.7372 189.247 16.3754 189.05C16.0466 188.853 15.5534 188.754 14.8957 188.754H12.4788V202.357H4.88291ZM12.4788 183.481H16.1781C18.4142 183.481 20.0912 182.956 21.2092 181.904C22.3601 180.82 22.9355 179.391 22.9355 177.616C22.9355 175.908 22.3765 174.593 21.2585 173.674C20.1734 172.754 18.4964 172.294 16.2275 172.294H12.4788V183.481ZM28.9531 202.357L26.2896 196.295L29.7916 196.985L28.9531 202.357ZM1.13428 202.357V199.153C1.13428 198.66 1.28225 198.283 1.57819 198.02C1.87414 197.756 2.28518 197.576 2.8113 197.477L5.2775 196.935L5.96804 202.357H1.13428ZM5.96804 166.528L5.2775 171.949L2.8113 171.456C2.28518 171.325 1.87414 171.144 1.57819 170.914C1.28225 170.651 1.13428 170.256 1.13428 169.731V166.528H5.96804ZM11.3937 202.357L12.0349 196.935L14.5504 197.477C15.0765 197.576 15.4876 197.756 15.7835 198.02C16.0795 198.283 16.2275 198.66 16.2275 199.153V202.357H11.3937ZM28.9531 202.357L29.5943 196.935L32.1098 197.477C32.6359 197.576 33.047 197.756 33.3429 198.02C33.6389 198.283 33.7868 198.66 33.7868 199.153V202.357H28.9531ZM47.144 202.751C44.5463 202.751 42.2939 202.176 40.3866 201.026C38.4794 199.876 36.9997 198.283 35.9474 196.245C34.8953 194.176 34.3691 191.777 34.3691 189.05C34.3691 186.717 34.8788 184.598 35.8981 182.693C36.9504 180.787 38.4136 179.275 40.288 178.158C42.1623 177.042 44.3325 176.483 46.7987 176.483C49.0676 176.483 51.0406 176.959 52.7176 177.912C54.3946 178.865 55.6935 180.212 56.6142 181.953C57.5679 183.661 58.0446 185.716 58.0446 188.114C58.0446 189.067 57.946 189.74 57.7487 190.134C57.5843 190.529 57.1568 190.726 56.4663 190.726H41.3238C41.3238 190.824 41.3238 190.923 41.3238 191.021C41.3567 191.087 41.3896 191.169 41.4224 191.268C41.7184 193.37 42.4089 194.932 43.494 195.95C44.5792 196.968 45.9932 197.477 47.7359 197.477C48.5909 197.477 49.4294 197.313 50.2514 196.985C51.1064 196.623 51.9121 196.262 52.6683 195.9C53.4246 195.539 54.0659 195.358 54.5919 195.358C55.0852 195.358 55.5127 195.555 55.8744 195.95L57.8967 198.463C56.9431 199.547 55.858 200.402 54.6413 201.026C53.4575 201.65 52.2244 202.093 50.942 202.357C49.6595 202.62 48.3936 202.751 47.144 202.751ZM41.4224 186.635H51.8298C51.8298 185.157 51.4188 183.908 50.5967 182.89C49.8075 181.871 48.5909 181.362 46.9467 181.362C45.3683 181.362 44.1189 181.822 43.1981 182.742C42.3102 183.661 41.7184 184.96 41.4224 186.635ZM69.1619 202.751C67.5835 202.751 66.0709 202.62 64.6241 202.357C63.2101 202.093 61.9606 201.782 60.8754 201.42V197.083L64.1308 196.738C64.4925 197.066 65.1995 197.362 66.2518 197.625C67.304 197.888 68.3562 198.02 69.4085 198.02C70.658 198.02 71.5788 197.79 72.1707 197.33C72.7954 196.837 73.1078 196.196 73.1078 195.408C73.1078 194.652 72.7954 194.077 72.1707 193.683C71.5458 193.256 70.7731 192.911 69.8524 192.648C68.9316 192.352 68.011 192.04 67.0903 191.711C65.9394 191.317 64.8871 190.841 63.9335 190.282C63.0128 189.691 62.2894 188.935 61.7633 188.015C61.2371 187.062 60.9741 185.879 60.9741 184.467C60.9741 182.89 61.3687 181.51 62.1579 180.327C62.9799 179.144 64.1308 178.208 65.6106 177.518C67.0903 176.828 68.8166 176.483 70.7896 176.483C72.368 176.483 73.7654 176.697 74.9821 177.124C76.1988 177.55 77.3661 178.06 78.4842 178.651V181.805L75.1301 182.446C74.5711 182.249 73.9627 182.035 73.3051 181.805C72.6474 181.576 71.8747 181.46 70.9869 181.46C70.2963 181.46 69.688 181.559 69.1619 181.756C68.6357 181.921 68.2411 182.183 67.9781 182.545C67.715 182.906 67.5835 183.35 67.5835 183.875C67.5835 184.533 67.8958 185.075 68.5207 185.502C69.1783 185.928 69.9839 186.29 70.9376 186.586C71.8911 186.849 72.7954 187.145 73.6504 187.473C74.7355 187.867 75.722 188.328 76.6098 188.853C77.5305 189.378 78.2539 190.068 78.7801 190.923C79.339 191.777 79.6186 192.877 79.6186 194.225C79.6186 195.966 79.1911 197.477 78.3362 198.759C77.514 200.008 76.3139 200.993 74.7355 201.716C73.19 202.406 71.3322 202.751 69.1619 202.751ZM73.6011 180.327L78.4842 181.559V185.403H75.9686C75.4424 185.403 75.0478 185.255 74.7848 184.96C74.5218 184.664 74.3409 184.253 74.2423 183.727L73.6011 180.327ZM65.7585 199.055L60.8754 197.822V193.978H63.391C63.9171 193.978 64.2952 194.126 64.5254 194.422C64.7884 194.718 64.9857 195.129 65.1173 195.654L65.7585 199.055ZM92.3161 202.751C89.9814 202.751 88.1893 202.11 86.9398 200.829C85.6902 199.515 85.0655 197.741 85.0655 195.506V181.855H82.7472C82.3855 181.855 82.0731 181.739 81.8101 181.51C81.547 181.28 81.4155 180.935 81.4155 180.475V177.715L85.5094 176.976L86.8905 170.47C87.0548 169.748 87.5645 169.386 88.4195 169.386H92.0695V177.025H98.4816V181.855H92.0695V195.013C92.0695 195.703 92.2338 196.262 92.5627 196.689C92.8915 197.083 93.3519 197.28 93.9437 197.28C94.3055 197.28 94.6179 197.231 94.881 197.132C95.144 197.001 95.3742 196.886 95.5715 196.788C95.7688 196.656 95.9825 196.59 96.2127 196.59C96.5415 196.59 96.8375 196.788 97.1005 197.182L99.2212 200.533C98.2679 201.256 97.1827 201.814 95.9661 202.209C94.7823 202.57 93.5656 202.751 92.3161 202.751ZM114.052 176.483C116.649 176.483 118.902 177.025 120.809 178.109C122.716 179.161 124.196 180.672 125.249 182.643C126.301 184.615 126.827 186.914 126.827 189.543C126.827 192.204 126.301 194.52 125.249 196.492C124.229 198.463 122.75 200.008 120.809 201.124C118.902 202.209 116.649 202.751 114.052 202.751C111.487 202.751 109.235 202.209 107.295 201.124C105.354 200.008 103.842 198.463 102.757 196.492C101.704 194.52 101.178 192.204 101.178 189.543C101.178 186.914 101.704 184.615 102.757 182.643C103.842 180.672 105.354 179.161 107.295 178.109C109.235 177.025 111.487 176.483 114.052 176.483ZM114.052 197.527C115.959 197.527 117.357 196.869 118.245 195.555C119.165 194.208 119.626 192.221 119.626 189.592C119.626 187.851 119.428 186.406 119.034 185.255C118.639 184.072 118.03 183.185 117.209 182.594C116.387 182.003 115.334 181.707 114.052 181.707C112.77 181.707 111.701 182.003 110.846 182.594C110.024 183.185 109.399 184.072 108.972 185.255C108.577 186.406 108.38 187.851 108.38 189.592C108.38 192.221 108.84 194.208 109.761 195.555C110.681 196.869 112.112 197.527 114.052 197.527ZM132.966 202.357V176.877H137.257C138.177 176.877 138.769 177.288 139.033 178.109L139.427 179.736C140.315 178.816 141.285 178.043 142.337 177.419C143.423 176.795 144.671 176.483 146.086 176.483C147.664 176.483 148.963 176.91 149.983 177.764C151.002 178.585 151.774 179.686 152.301 181.066C153.09 179.489 154.24 178.339 155.754 177.616C157.266 176.86 158.827 176.483 160.439 176.483C163.333 176.483 165.535 177.353 167.049 179.095C168.594 180.803 169.367 183.153 169.367 186.142V202.357H162.412V186.142C162.412 184.73 162.1 183.661 161.475 182.939C160.85 182.183 159.913 181.805 158.664 181.805C157.545 181.805 156.592 182.183 155.802 182.939C155.046 183.695 154.668 184.762 154.668 186.142V202.357H147.714V186.142C147.714 184.598 147.401 183.498 146.777 182.84C146.151 182.15 145.247 181.805 144.064 181.805C143.275 181.805 142.535 181.986 141.844 182.348C141.186 182.709 140.562 183.202 139.97 183.826V202.357H132.966ZM129.217 202.357V199.153C129.217 198.66 129.365 198.283 129.661 198.02C129.99 197.756 130.417 197.576 130.943 197.477L133.41 196.935L134.051 202.357H129.217ZM138.885 202.357L139.526 196.935L141.992 197.477C142.518 197.576 142.929 197.756 143.225 198.02C143.554 198.283 143.718 198.66 143.718 199.153V202.357H138.885ZM153.583 202.357L154.274 196.935L156.74 197.477C157.266 197.576 157.677 197.756 157.973 198.02C158.269 198.283 158.417 198.66 158.417 199.153V202.357H153.583ZM134.051 176.877L133.41 182.298L130.943 181.805C130.417 181.674 129.99 181.493 129.661 181.263C129.365 181 129.217 180.606 129.217 180.081V176.877H134.051ZM168.282 202.357L168.923 196.935L171.439 197.477C171.964 197.576 172.376 197.756 172.672 198.02C172.968 198.283 173.116 198.66 173.116 199.153V202.357H168.282ZM179.062 202.357V176.877H186.066V202.357H179.062ZM175.313 202.357V199.153C175.313 198.66 175.461 198.283 175.757 198.02C176.086 197.756 176.514 197.576 177.04 197.477L179.506 196.935L180.147 202.357H175.313ZM184.981 202.357L185.622 196.935L188.088 197.477C188.614 197.576 189.026 197.756 189.322 198.02C189.65 198.283 189.815 198.66 189.815 199.153V202.357H184.981ZM180.147 176.877L179.506 182.298L177.04 181.805C176.514 181.674 176.086 181.493 175.757 181.263C175.461 181 175.313 180.606 175.313 180.081V176.877H180.147ZM182.663 173.871C181.545 173.871 180.559 173.46 179.703 172.639C178.848 171.818 178.421 170.848 178.421 169.731C178.421 168.548 178.848 167.563 179.703 166.774C180.559 165.953 181.545 165.542 182.663 165.542C183.847 165.542 184.866 165.953 185.721 166.774C186.609 167.563 187.053 168.548 187.053 169.731C187.053 170.848 186.609 171.818 185.721 172.639C184.866 173.46 183.847 173.871 182.663 173.871ZM195.729 202.357V176.877H200.02C200.94 176.877 201.532 177.288 201.796 178.109L202.19 179.834C203.242 178.848 204.376 178.043 205.594 177.419C206.81 176.795 208.224 176.483 209.835 176.483C211.676 176.483 213.239 176.91 214.521 177.764C215.804 178.585 216.773 179.719 217.431 181.165C218.088 182.611 218.418 184.27 218.418 186.142V202.357H211.463V186.142C211.463 184.795 211.134 183.744 210.477 182.988C209.851 182.2 208.914 181.805 207.665 181.805C206.744 181.805 205.873 182.019 205.051 182.446C204.228 182.84 203.456 183.382 202.733 184.072V202.357H195.729ZM191.98 202.357V199.153C191.98 198.66 192.128 198.283 192.424 198.02C192.753 197.756 193.18 197.576 193.706 197.477L196.173 196.935L196.814 202.357H191.98ZM201.648 202.357L202.289 196.935L204.755 197.477C205.281 197.576 205.692 197.756 205.988 198.02C206.317 198.283 206.481 198.66 206.481 199.153V202.357H201.648ZM217.333 202.357L218.023 196.935L220.489 197.477C221.015 197.576 221.427 197.756 221.723 198.02C222.019 198.283 222.166 198.66 222.166 199.153V202.357H217.333ZM196.814 176.877L196.173 182.298L193.706 181.805C193.18 181.674 192.753 181.493 192.424 181.263C192.128 181 191.98 180.606 191.98 180.081V176.877H196.814ZM233.522 202.751C231.615 202.751 229.954 202.209 228.54 201.124C227.159 200.008 226.091 198.463 225.334 196.492C224.577 194.52 224.2 192.253 224.2 189.691C224.2 187.227 224.644 184.992 225.531 182.988C226.419 180.984 227.685 179.391 229.329 178.208C230.974 177.025 232.897 176.434 235.1 176.434C236.481 176.434 237.648 176.647 238.602 177.074C239.556 177.469 240.41 178.011 241.167 178.701V165.542H248.122V202.357H243.831C242.91 202.357 242.334 201.945 242.104 201.124L241.562 198.956C240.543 200.106 239.359 201.026 238.01 201.716C236.695 202.406 235.199 202.751 233.522 202.751ZM235.939 197.379C237.09 197.379 238.076 197.149 238.898 196.689C239.72 196.196 240.477 195.523 241.167 194.668V183.58C240.509 182.857 239.819 182.348 239.095 182.052C238.405 181.756 237.633 181.608 236.777 181.608C235.626 181.608 234.64 181.921 233.818 182.545C233.029 183.136 232.42 184.04 231.993 185.255C231.598 186.471 231.401 187.949 231.401 189.691C231.401 192.187 231.763 194.094 232.486 195.408C233.243 196.721 234.393 197.379 235.939 197.379ZM242.252 165.542L241.611 170.963L239.095 170.47C238.57 170.339 238.158 170.158 237.862 169.928C237.566 169.665 237.418 169.271 237.418 168.745V165.542H242.252ZM247.037 202.357L247.678 196.935L250.193 197.477C250.719 197.576 251.131 197.756 251.427 198.02C251.722 198.283 251.87 198.66 251.87 199.153V202.357H247.037ZM266.694 202.751C264.096 202.751 261.844 202.176 259.937 201.026C258.029 199.876 256.549 198.283 255.498 196.245C254.445 194.176 253.919 191.777 253.919 189.05C253.919 186.717 254.428 184.598 255.448 182.693C256.5 180.787 257.964 179.275 259.838 178.158C261.713 177.042 263.883 176.483 266.349 176.483C268.618 176.483 270.591 176.959 272.268 177.912C273.945 178.865 275.243 180.212 276.165 181.953C277.117 183.661 277.595 185.716 277.595 188.114C277.595 189.067 277.496 189.74 277.299 190.134C277.134 190.529 276.707 190.726 276.017 190.726H260.874C260.874 190.824 260.874 190.923 260.874 191.021C260.907 191.087 260.939 191.169 260.973 191.268C261.269 193.37 261.959 194.932 263.044 195.95C264.129 196.968 265.543 197.477 267.286 197.477C268.14 197.477 268.979 197.313 269.802 196.985C270.656 196.623 271.462 196.262 272.219 195.9C272.974 195.539 273.615 195.358 274.142 195.358C274.635 195.358 275.063 195.555 275.425 195.95L277.447 198.463C276.493 199.547 275.408 200.402 274.192 201.026C273.008 201.65 271.775 202.093 270.492 202.357C269.21 202.62 267.943 202.751 266.694 202.751ZM260.973 186.635H271.38C271.38 185.157 270.969 183.908 270.147 182.89C269.358 181.871 268.14 181.362 266.497 181.362C264.919 181.362 263.669 181.822 262.748 182.742C261.861 183.661 261.269 184.96 260.973 186.635ZM283.779 202.357V176.877H287.922C288.613 176.877 289.09 177.008 289.353 177.271C289.649 177.535 289.846 177.978 289.945 178.602L290.389 181.263C291.276 179.785 292.312 178.619 293.496 177.764C294.68 176.877 295.996 176.434 297.442 176.434C298.067 176.434 298.626 176.515 299.119 176.68C299.612 176.811 300.04 177.008 300.401 177.271L299.514 182.397C299.448 182.725 299.316 182.956 299.119 183.087C298.955 183.218 298.709 183.284 298.379 183.284C298.28 183.284 297.952 183.251 297.393 183.185C296.834 183.087 296.324 183.038 295.864 183.038C294.746 183.038 293.759 183.35 292.904 183.974C292.05 184.565 291.343 185.452 290.783 186.635V202.357H283.779ZM289.698 202.357L290.339 196.935L292.805 197.477C293.332 197.576 293.743 197.756 294.039 198.02C294.368 198.283 294.532 198.66 294.532 199.153V202.357H289.698ZM280.031 202.357V199.153C280.031 198.66 280.179 198.283 280.474 198.02C280.804 197.756 281.231 197.576 281.757 197.477L284.223 196.935L284.864 202.357H280.031ZM284.864 176.877L284.223 182.298L281.757 181.805C281.231 181.674 280.804 181.493 280.474 181.263C280.179 181 280.031 180.606 280.031 180.081V176.877H284.864Z" fill="white"/>
<path d="M6.01134 202.357V166.528H17.3559C20.1838 166.528 22.65 166.905 24.7545 167.661C26.8919 168.384 28.536 169.517 29.687 171.062C30.8707 172.606 31.4626 174.593 31.4626 177.025C31.4626 178.635 31.1667 180.113 30.5748 181.46C29.9829 182.774 29.1279 183.925 28.0099 184.91C26.9248 185.863 25.5766 186.635 23.9654 187.227C25.0175 187.719 25.8725 188.491 26.5302 189.543L34.718 202.357H27.862C26.5466 202.357 25.6259 201.864 25.0998 200.878L18.4411 189.986C18.178 189.56 17.8655 189.247 17.5039 189.05C17.175 188.853 16.6818 188.754 16.0242 188.754H13.6073V202.357H6.01134ZM13.6073 183.481H17.3066C19.5426 183.481 21.2196 182.956 22.3377 181.904C23.4885 180.82 24.064 179.391 24.064 177.616C24.064 175.908 23.505 174.593 22.387 173.674C21.3019 172.754 19.6248 172.294 17.3559 172.294H13.6073V183.481ZM30.0815 202.357L27.418 196.295L30.9201 196.985L30.0815 202.357ZM2.2627 202.357V199.153C2.2627 198.66 2.41067 198.283 2.70661 198.02C3.00256 197.756 3.41359 197.576 3.93972 197.477L6.40593 196.935L7.09647 202.357H2.2627ZM7.09647 166.528L6.40593 171.949L3.93972 171.456C3.41359 171.325 3.00256 171.144 2.70661 170.914C2.41067 170.651 2.2627 170.256 2.2627 169.731V166.528H7.09647ZM12.5222 202.357L13.1634 196.935L15.6789 197.477C16.205 197.576 16.6161 197.756 16.912 198.02C17.208 198.283 17.3559 198.66 17.3559 199.153V202.357H12.5222ZM30.0815 202.357L30.7228 196.935L33.2383 197.477C33.7644 197.576 34.1754 197.756 34.4714 198.02C34.7673 198.283 34.9153 198.66 34.9153 199.153V202.357H30.0815ZM48.2725 202.751C45.6748 202.751 43.4222 202.176 41.5151 201.026C39.6079 199.876 38.1282 198.283 37.0759 196.245C36.0236 194.176 35.4975 191.777 35.4975 189.05C35.4975 186.717 36.0072 184.598 37.0266 182.693C38.0789 180.787 39.5421 179.275 41.4164 178.158C43.2907 177.042 45.461 176.483 47.9272 176.483C50.1961 176.483 52.1691 176.959 53.8461 177.912C55.5231 178.865 56.822 180.212 57.7427 181.953C58.6963 183.661 59.1731 185.716 59.1731 188.114C59.1731 189.067 59.0745 189.74 58.8772 190.134C58.7127 190.529 58.2853 190.726 57.5947 190.726H42.4522C42.4522 190.824 42.4522 190.923 42.4522 191.021C42.4851 191.087 42.518 191.169 42.5509 191.268C42.8468 193.37 43.5374 194.932 44.6225 195.95C45.7076 196.968 47.1215 197.477 48.8644 197.477C49.7193 197.477 50.5579 197.313 51.3799 196.985C52.2349 196.623 53.0404 196.262 53.7968 195.9C54.5531 195.539 55.1943 195.358 55.7204 195.358C56.2137 195.358 56.6411 195.555 57.0028 195.95L59.0251 198.463C58.0715 199.547 56.9864 200.402 55.7697 201.026C54.586 201.65 53.3529 202.093 52.0704 202.357C50.788 202.62 49.5221 202.751 48.2725 202.751ZM42.5509 186.635H52.9583C52.9583 185.157 52.5472 183.908 51.7252 182.89C50.936 181.871 49.7193 181.362 48.0752 181.362C46.4968 181.362 45.2472 181.822 44.3265 182.742C43.4387 183.661 42.8468 184.96 42.5509 186.635ZM70.2903 202.751C68.7119 202.751 67.1993 202.62 65.7524 202.357C64.3385 202.093 63.0889 201.782 62.0038 201.42V197.083L65.2592 196.738C65.6209 197.066 66.328 197.362 67.3801 197.625C68.4324 197.888 69.4847 198.02 70.5369 198.02C71.7865 198.02 72.7071 197.79 73.299 197.33C73.9239 196.837 74.2362 196.196 74.2362 195.408C74.2362 194.652 73.9239 194.077 73.299 193.683C72.6743 193.256 71.9016 192.911 70.9808 192.648C70.0601 192.352 69.1394 192.04 68.2187 191.711C67.0678 191.317 66.0155 190.841 65.0619 190.282C64.1412 189.691 63.4178 188.935 62.8916 188.015C62.3656 187.062 62.1025 185.879 62.1025 184.467C62.1025 182.89 62.4971 181.51 63.2862 180.327C64.1084 179.144 65.2592 178.208 66.7389 177.518C68.2187 176.828 69.945 176.483 71.918 176.483C73.4963 176.483 74.8939 176.697 76.1105 177.124C77.3272 177.55 78.4945 178.06 79.6125 178.651V181.805L76.2585 182.446C75.6995 182.249 75.0912 182.035 74.4335 181.805C73.7759 181.576 73.0031 181.46 72.1153 181.46C71.4247 181.46 70.8165 181.559 70.2903 181.756C69.7642 181.921 69.3696 182.183 69.1065 182.545C68.8435 182.906 68.7119 183.35 68.7119 183.875C68.7119 184.533 69.0243 185.075 69.649 185.502C70.3067 185.928 71.1124 186.29 72.0659 186.586C73.0196 186.849 73.9239 187.145 74.7788 187.473C75.8639 187.867 76.8504 188.328 77.7382 188.853C78.659 189.378 79.3824 190.068 79.9085 190.923C80.4675 191.777 80.747 192.877 80.747 194.225C80.747 195.966 80.3195 197.477 79.4645 198.759C78.6425 200.008 77.4423 200.993 75.8639 201.716C74.3185 202.406 72.4605 202.751 70.2903 202.751ZM74.7294 180.327L79.6125 181.559V185.403H77.097C76.5709 185.403 76.1763 185.255 75.9132 184.96C75.6502 184.664 75.4693 184.253 75.3707 183.727L74.7294 180.327ZM66.8869 199.055L62.0038 197.822V193.978H64.5193C65.0455 193.978 65.4237 194.126 65.6538 194.422C65.9169 194.718 66.1142 195.129 66.2457 195.654L66.8869 199.055ZM93.4445 202.751C91.1098 202.751 89.3177 202.11 88.0682 200.829C86.8186 199.515 86.1938 197.741 86.1938 195.506V181.855H83.8756C83.5139 181.855 83.2015 181.739 82.9384 181.51C82.6753 181.28 82.5439 180.935 82.5439 180.475V177.715L86.6377 176.976L88.0188 170.47C88.1833 169.748 88.6929 169.386 89.5479 169.386H93.1979V177.025H99.6102V181.855H93.1979V195.013C93.1979 195.703 93.3623 196.262 93.6911 196.689C94.0199 197.083 94.4803 197.28 95.0722 197.28C95.4339 197.28 95.7462 197.231 96.0093 197.132C96.2724 197.001 96.5026 196.886 96.6999 196.788C96.8972 196.656 97.1109 196.59 97.3411 196.59C97.6699 196.59 97.9658 196.788 98.2289 197.182L100.35 200.533C99.3961 201.256 98.3111 201.814 97.0945 202.209C95.9107 202.57 94.6941 202.751 93.4445 202.751ZM115.18 176.483C117.778 176.483 120.03 177.025 121.937 178.109C123.845 179.161 125.325 180.672 126.376 182.643C127.429 184.615 127.955 186.914 127.955 189.543C127.955 192.204 127.429 194.52 126.376 196.492C125.357 198.463 123.878 200.008 121.937 201.124C120.03 202.209 117.778 202.751 115.18 202.751C112.615 202.751 110.363 202.209 108.422 201.124C106.483 200.008 104.97 198.463 103.885 196.492C102.833 194.52 102.306 192.204 102.306 189.543C102.306 186.914 102.833 184.615 103.885 182.643C104.97 180.672 106.483 179.161 108.422 178.109C110.363 177.025 112.615 176.483 115.18 176.483ZM115.18 197.527C117.088 197.527 118.485 196.869 119.372 195.555C120.294 194.208 120.753 192.221 120.753 189.592C120.753 187.851 120.556 186.406 120.162 185.255C119.767 184.072 119.159 183.185 118.337 182.594C117.515 182.003 116.462 181.707 115.18 181.707C113.897 181.707 112.829 182.003 111.974 182.594C111.152 183.185 110.528 184.072 110.099 185.255C109.705 186.406 109.508 187.851 109.508 189.592C109.508 192.221 109.968 194.208 110.889 195.555C111.81 196.869 113.24 197.527 115.18 197.527ZM134.094 202.357V176.877H138.385C139.305 176.877 139.897 177.288 140.161 178.109L140.555 179.736C141.443 178.816 142.413 178.043 143.465 177.419C144.55 176.795 145.8 176.483 147.214 176.483C148.792 176.483 150.091 176.91 151.11 177.764C152.13 178.585 152.903 179.686 153.429 181.066C154.218 179.489 155.369 178.339 156.881 177.616C158.394 176.86 159.956 176.483 161.567 176.483C164.461 176.483 166.664 177.353 168.177 179.095C169.722 180.803 170.495 183.153 170.495 186.142V202.357H163.54V186.142C163.54 184.73 163.227 183.661 162.603 182.939C161.979 182.183 161.041 181.805 159.792 181.805C158.674 181.805 157.72 182.183 156.931 182.939C156.174 183.695 155.796 184.762 155.796 186.142V202.357H148.842V186.142C148.842 184.598 148.529 183.498 147.904 182.84C147.28 182.15 146.375 181.805 145.192 181.805C144.402 181.805 143.663 181.986 142.972 182.348C142.314 182.709 141.69 183.202 141.098 183.826V202.357H134.094ZM130.345 202.357V199.153C130.345 198.66 130.493 198.283 130.789 198.02C131.117 197.756 131.546 197.576 132.071 197.477L134.538 196.935L135.179 202.357H130.345ZM140.013 202.357L140.654 196.935L143.12 197.477C143.646 197.576 144.057 197.756 144.353 198.02C144.682 198.283 144.846 198.66 144.846 199.153V202.357H140.013ZM154.711 202.357L155.402 196.935L157.868 197.477C158.394 197.576 158.805 197.756 159.101 198.02C159.397 198.283 159.545 198.66 159.545 199.153V202.357H154.711ZM135.179 176.877L134.538 182.298L132.071 181.805C131.546 181.674 131.117 181.493 130.789 181.263C130.493 181 130.345 180.606 130.345 180.081V176.877H135.179ZM169.41 202.357L170.051 196.935L172.566 197.477C173.092 197.576 173.504 197.756 173.8 198.02C174.096 198.283 174.243 198.66 174.243 199.153V202.357H169.41ZM180.191 202.357V176.877H187.195V202.357H180.191ZM176.442 202.357V199.153C176.442 198.66 176.59 198.283 176.886 198.02C177.215 197.756 177.642 197.576 178.169 197.477L180.635 196.935L181.276 202.357H176.442ZM186.11 202.357L186.751 196.935L189.217 197.477C189.743 197.576 190.154 197.756 190.45 198.02C190.779 198.283 190.944 198.66 190.944 199.153V202.357H186.11ZM181.276 176.877L180.635 182.298L178.169 181.805C177.642 181.674 177.215 181.493 176.886 181.263C176.59 181 176.442 180.606 176.442 180.081V176.877H181.276ZM183.792 173.871C182.673 173.871 181.686 173.46 180.832 172.639C179.977 171.818 179.55 170.848 179.55 169.731C179.55 168.548 179.977 167.563 180.832 166.774C181.686 165.953 182.673 165.542 183.792 165.542C184.975 165.542 185.994 165.953 186.85 166.774C187.738 167.563 188.181 168.548 188.181 169.731C188.181 170.848 187.738 171.818 186.85 172.639C185.994 173.46 184.975 173.871 183.792 173.871ZM196.857 202.357V176.877H201.148C202.068 176.877 202.66 177.288 202.923 178.109L203.318 179.834C204.371 178.848 205.505 178.043 206.721 177.419C207.938 176.795 209.352 176.483 210.963 176.483C212.805 176.483 214.367 176.91 215.649 177.764C216.932 178.585 217.901 179.719 218.559 181.165C219.217 182.611 219.546 184.27 219.546 186.142V202.357H212.591V186.142C212.591 184.795 212.263 183.744 211.605 182.988C210.98 182.2 210.043 181.805 208.793 181.805C207.873 181.805 207.001 182.019 206.179 182.446C205.357 182.84 204.584 183.382 203.861 184.072V202.357H196.857ZM193.108 202.357V199.153C193.108 198.66 193.256 198.283 193.552 198.02C193.88 197.756 194.309 197.576 194.834 197.477L197.301 196.935L197.942 202.357H193.108ZM202.776 202.357L203.417 196.935L205.883 197.477C206.409 197.576 206.82 197.756 207.116 198.02C207.445 198.283 207.609 198.66 207.609 199.153V202.357H202.776ZM218.461 202.357L219.151 196.935L221.617 197.477C222.143 197.576 222.554 197.756 222.85 198.02C223.146 198.283 223.294 198.66 223.294 199.153V202.357H218.461ZM197.942 176.877L197.301 182.298L194.834 181.805C194.309 181.674 193.88 181.493 193.552 181.263C193.256 181 193.108 180.606 193.108 180.081V176.877H197.942ZM234.65 202.751C232.743 202.751 231.083 202.209 229.668 201.124C228.287 200.008 227.219 198.463 226.462 196.492C225.706 194.52 225.327 192.253 225.327 189.691C225.327 187.227 225.771 184.992 226.659 182.988C227.547 180.984 228.814 179.391 230.457 178.208C232.102 177.025 234.025 176.434 236.228 176.434C237.609 176.434 238.777 176.647 239.73 177.074C240.684 177.469 241.539 178.011 242.295 178.701V165.542H249.25V202.357H244.958C244.038 202.357 243.463 201.945 243.232 201.124L242.69 198.956C241.671 200.106 240.487 201.026 239.138 201.716C237.823 202.406 236.327 202.751 234.65 202.751ZM237.067 197.379C238.218 197.379 239.204 197.149 240.026 196.689C240.849 196.196 241.604 195.523 242.295 194.668V183.58C241.638 182.857 240.947 182.348 240.223 182.052C239.533 181.756 238.76 181.608 237.905 181.608C236.755 181.608 235.768 181.921 234.946 182.545C234.156 183.136 233.549 184.04 233.121 185.255C232.726 186.471 232.529 187.949 232.529 189.691C232.529 192.187 232.891 194.094 233.614 195.408C234.371 196.721 235.522 197.379 237.067 197.379ZM243.38 165.542L242.739 170.963L240.223 170.47C239.698 170.339 239.286 170.158 238.99 169.928C238.694 169.665 238.546 169.271 238.546 168.745V165.542H243.38ZM248.165 202.357L248.806 196.935L251.321 197.477C251.848 197.576 252.258 197.756 252.554 198.02C252.85 198.283 252.998 198.66 252.998 199.153V202.357H248.165ZM267.822 202.751C265.225 202.751 262.973 202.176 261.065 201.026C259.158 199.876 257.678 198.283 256.626 196.245C255.574 194.176 255.047 191.777 255.047 189.05C255.047 186.717 255.557 184.598 256.576 182.693C257.629 180.787 259.092 179.275 260.966 178.158C262.84 177.042 265.011 176.483 267.477 176.483C269.746 176.483 271.719 176.959 273.396 177.912C275.073 178.865 276.372 180.212 277.292 181.953C278.246 183.661 278.723 185.716 278.723 188.114C278.723 189.067 278.624 189.74 278.427 190.134C278.263 190.529 277.835 190.726 277.144 190.726H262.002C262.002 190.824 262.002 190.923 262.002 191.021C262.035 191.087 262.068 191.169 262.101 191.268C262.397 193.37 263.087 194.932 264.172 195.95C265.257 196.968 266.672 197.477 268.414 197.477C269.269 197.477 270.108 197.313 270.93 196.985C271.785 196.623 272.591 196.262 273.346 195.9C274.103 195.539 274.744 195.358 275.27 195.358C275.763 195.358 276.191 195.555 276.553 195.95L278.575 198.463C277.622 199.547 276.537 200.402 275.319 201.026C274.136 201.65 272.903 202.093 271.62 202.357C270.338 202.62 269.072 202.751 267.822 202.751ZM262.101 186.635H272.508C272.508 185.157 272.098 183.908 271.275 182.89C270.486 181.871 269.269 181.362 267.625 181.362C266.047 181.362 264.798 181.822 263.876 182.742C262.988 183.661 262.397 184.96 262.101 186.635ZM284.908 202.357V176.877H289.051C289.742 176.877 290.218 177.008 290.482 177.271C290.778 177.535 290.975 177.978 291.074 178.602L291.517 181.263C292.405 179.785 293.441 178.619 294.625 177.764C295.809 176.877 297.124 176.434 298.571 176.434C299.195 176.434 299.755 176.515 300.248 176.68C300.741 176.811 301.168 177.008 301.53 177.271L300.642 182.397C300.576 182.725 300.445 182.956 300.248 183.087C300.083 183.218 299.836 183.284 299.508 183.284C299.409 183.284 299.081 183.251 298.522 183.185C297.962 183.087 297.453 183.038 296.992 183.038C295.875 183.038 294.888 183.35 294.033 183.974C293.178 184.565 292.471 185.452 291.912 186.635V202.357H284.908ZM290.827 202.357L291.468 196.935L293.934 197.477C294.46 197.576 294.872 197.756 295.167 198.02C295.496 198.283 295.661 198.66 295.661 199.153V202.357H290.827ZM281.159 202.357V199.153C281.159 198.66 281.307 198.283 281.603 198.02C281.932 197.756 282.36 197.576 282.886 197.477L285.352 196.935L285.993 202.357H281.159ZM285.993 176.877L285.352 182.298L282.886 181.805C282.36 181.674 281.932 181.493 281.603 181.263C281.307 181 281.159 180.606 281.159 180.081V176.877H285.993Z" fill="white"/>
<path d="M20.4609 224.686H21.6816C21.6426 225.151 21.5124 225.566 21.291 225.931C21.0697 226.292 20.7588 226.577 20.3584 226.785C19.958 226.993 19.4714 227.098 18.8984 227.098C18.459 227.098 18.0635 227.02 17.7119 226.863C17.3604 226.704 17.0592 226.479 16.8086 226.189C16.5579 225.896 16.3659 225.543 16.2324 225.13C16.1022 224.716 16.0371 224.254 16.0371 223.743V223.152C16.0371 222.641 16.1038 222.179 16.2373 221.766C16.374 221.352 16.5693 220.999 16.8232 220.706C17.0771 220.41 17.3815 220.184 17.7363 220.027C18.0944 219.871 18.4964 219.793 18.9424 219.793C19.5088 219.793 19.9873 219.897 20.3779 220.105C20.7686 220.314 21.0713 220.602 21.2861 220.97C21.5042 221.338 21.6377 221.759 21.6865 222.234H20.4658C20.4333 221.928 20.3617 221.666 20.251 221.448C20.1436 221.23 19.984 221.064 19.7725 220.95C19.5609 220.833 19.2842 220.774 18.9424 220.774C18.6624 220.774 18.4183 220.826 18.21 220.931C18.0016 221.035 17.8275 221.188 17.6875 221.39C17.5475 221.591 17.4417 221.84 17.3701 222.137C17.3018 222.43 17.2676 222.765 17.2676 223.143V223.743C17.2676 224.101 17.2985 224.427 17.3604 224.72C17.4255 225.009 17.5231 225.258 17.6533 225.467C17.7868 225.675 17.9561 225.836 18.1611 225.95C18.3662 226.064 18.612 226.121 18.8984 226.121C19.2467 226.121 19.5283 226.066 19.7432 225.955C19.9613 225.844 20.1257 225.683 20.2363 225.472C20.3503 225.257 20.4251 224.995 20.4609 224.686ZM32.9639 223.25V223.641C32.9639 224.178 32.8939 224.66 32.7539 225.086C32.6139 225.512 32.4137 225.875 32.1533 226.175C31.8962 226.474 31.5869 226.704 31.2256 226.863C30.8643 227.02 30.4639 227.098 30.0244 227.098C29.5882 227.098 29.1895 227.02 28.8281 226.863C28.4701 226.704 28.1592 226.474 27.8955 226.175C27.6318 225.875 27.4268 225.512 27.2803 225.086C27.137 224.66 27.0654 224.178 27.0654 223.641V223.25C27.0654 222.713 27.137 222.233 27.2803 221.81C27.4235 221.383 27.6253 221.02 27.8857 220.721C28.1494 220.418 28.4603 220.188 28.8184 220.032C29.1797 219.873 29.5785 219.793 30.0146 219.793C30.4541 219.793 30.8545 219.873 31.2158 220.032C31.5771 220.188 31.888 220.418 32.1484 220.721C32.4089 221.02 32.609 221.383 32.749 221.81C32.8923 222.233 32.9639 222.713 32.9639 223.25ZM31.7383 223.641V223.24C31.7383 222.843 31.6992 222.493 31.6211 222.19C31.5462 221.884 31.4339 221.629 31.2842 221.424C31.1377 221.215 30.957 221.059 30.7422 220.955C30.5273 220.848 30.2848 220.794 30.0146 220.794C29.7445 220.794 29.5036 220.848 29.292 220.955C29.0804 221.059 28.8997 221.215 28.75 221.424C28.6035 221.629 28.4912 221.884 28.4131 222.19C28.335 222.493 28.2959 222.843 28.2959 223.24V223.641C28.2959 224.038 28.335 224.389 28.4131 224.695C28.4912 225.001 28.6051 225.26 28.7549 225.472C28.9079 225.68 29.0902 225.838 29.3018 225.945C29.5133 226.049 29.7542 226.102 30.0244 226.102C30.2979 226.102 30.5404 226.049 30.752 225.945C30.9635 225.838 31.1426 225.68 31.2891 225.472C31.4355 225.26 31.5462 225.001 31.6211 224.695C31.6992 224.389 31.7383 224.038 31.7383 223.641ZM44.3291 219.891V227H43.1035L39.915 221.907V227H38.6895V219.891H39.915L43.1133 224.993V219.891H44.3291ZM55.9287 219.891V227H54.7031L51.5146 221.907V227H50.2891V219.891H51.5146L54.7129 224.993V219.891H55.9287ZM66.542 226.028V227H62.7676V226.028H66.542ZM63.1143 219.891V227H61.8887V219.891H63.1143ZM66.0488 222.859V223.816H62.7676V222.859H66.0488ZM66.5176 219.891V220.867H62.7676V219.891H66.5176ZM76.2422 224.686H77.4629C77.4238 225.151 77.2936 225.566 77.0723 225.931C76.8509 226.292 76.54 226.577 76.1396 226.785C75.7393 226.993 75.2526 227.098 74.6797 227.098C74.2402 227.098 73.8447 227.02 73.4932 226.863C73.1416 226.704 72.8405 226.479 72.5898 226.189C72.3392 225.896 72.1471 225.543 72.0137 225.13C71.8835 224.716 71.8184 224.254 71.8184 223.743V223.152C71.8184 222.641 71.8851 222.179 72.0186 221.766C72.1553 221.352 72.3506 220.999 72.6045 220.706C72.8584 220.41 73.1628 220.184 73.5176 220.027C73.8757 219.871 74.2777 219.793 74.7236 219.793C75.29 219.793 75.7686 219.897 76.1592 220.105C76.5498 220.314 76.8525 220.602 77.0674 220.97C77.2855 221.338 77.4189 221.759 77.4678 222.234H76.2471C76.2145 221.928 76.1429 221.666 76.0322 221.448C75.9248 221.23 75.7653 221.064 75.5537 220.95C75.3421 220.833 75.0654 220.774 74.7236 220.774C74.4437 220.774 74.1995 220.826 73.9912 220.931C73.7829 221.035 73.6087 221.188 73.4688 221.39C73.3288 221.591 73.223 221.84 73.1514 222.137C73.083 222.43 73.0488 222.765 73.0488 223.143V223.743C73.0488 224.101 73.0798 224.427 73.1416 224.72C73.2067 225.009 73.3044 225.258 73.4346 225.467C73.568 225.675 73.7373 225.836 73.9424 225.95C74.1475 226.064 74.3932 226.121 74.6797 226.121C75.028 226.121 75.3096 226.066 75.5244 225.955C75.7425 225.844 75.9069 225.683 76.0176 225.472C76.1315 225.257 76.2064 224.995 76.2422 224.686ZM85.8545 219.891V227H84.6387V219.891H85.8545ZM88.0859 219.891V220.867H82.4268V219.891H88.0859ZM102.97 219.891V227H101.754V219.891H102.97ZM105.201 219.891V220.867H99.542V219.891H105.201ZM115.336 222.859V223.831H111.562V222.859H115.336ZM111.864 219.891V227H110.639V219.891H111.864ZM116.278 219.891V227H115.058V219.891H116.278ZM126.892 226.028V227H123.117V226.028H126.892ZM123.464 219.891V227H122.238V219.891H123.464ZM126.398 222.859V223.816H123.117V222.859H126.398ZM126.867 219.891V220.867H123.117V219.891H126.867ZM141.165 225.403L142.581 219.891H143.323L143.24 221.312L141.727 227H140.955L141.165 225.403ZM140.105 219.891L141.253 225.359L141.355 227H140.535L138.89 219.891H140.105ZM144.93 225.345L146.062 219.891H147.283L145.638 227H144.817L144.93 225.345ZM143.611 219.891L145.013 225.418L145.218 227H144.446L142.957 221.312L142.879 219.891H143.611ZM158.36 223.25V223.641C158.36 224.178 158.29 224.66 158.15 225.086C158.01 225.512 157.81 225.875 157.55 226.175C157.293 226.474 156.983 226.704 156.622 226.863C156.261 227.02 155.86 227.098 155.421 227.098C154.985 227.098 154.586 227.02 154.225 226.863C153.867 226.704 153.556 226.474 153.292 226.175C153.028 225.875 152.823 225.512 152.677 225.086C152.534 224.66 152.462 224.178 152.462 223.641V223.25C152.462 222.713 152.534 222.233 152.677 221.81C152.82 221.383 153.022 221.02 153.282 220.721C153.546 220.418 153.857 220.188 154.215 220.032C154.576 219.873 154.975 219.793 155.411 219.793C155.851 219.793 156.251 219.873 156.612 220.032C156.974 220.188 157.285 220.418 157.545 220.721C157.805 221.02 158.006 221.383 158.146 221.81C158.289 222.233 158.36 222.713 158.36 223.25ZM157.135 223.641V223.24C157.135 222.843 157.096 222.493 157.018 222.19C156.943 221.884 156.83 221.629 156.681 221.424C156.534 221.215 156.354 221.059 156.139 220.955C155.924 220.848 155.681 220.794 155.411 220.794C155.141 220.794 154.9 220.848 154.688 220.955C154.477 221.059 154.296 221.215 154.146 221.424C154 221.629 153.888 221.884 153.81 222.19C153.731 222.493 153.692 222.843 153.692 223.24V223.641C153.692 224.038 153.731 224.389 153.81 224.695C153.888 225.001 154.002 225.26 154.151 225.472C154.304 225.68 154.487 225.838 154.698 225.945C154.91 226.049 155.151 226.102 155.421 226.102C155.694 226.102 155.937 226.049 156.148 225.945C156.36 225.838 156.539 225.68 156.686 225.472C156.832 225.26 156.943 225.001 157.018 224.695C157.096 224.389 157.135 224.038 157.135 223.641ZM164.086 219.891H166.601C167.141 219.891 167.602 219.972 167.982 220.135C168.363 220.298 168.655 220.538 168.856 220.857C169.062 221.173 169.164 221.564 169.164 222.029C169.164 222.384 169.099 222.697 168.969 222.967C168.839 223.237 168.655 223.465 168.417 223.65C168.179 223.833 167.896 223.974 167.567 224.075L167.196 224.256H164.936L164.926 223.284H166.62C166.913 223.284 167.157 223.232 167.353 223.128C167.548 223.024 167.694 222.882 167.792 222.703C167.893 222.521 167.943 222.316 167.943 222.088C167.943 221.84 167.895 221.626 167.797 221.443C167.702 221.258 167.556 221.116 167.357 221.019C167.159 220.918 166.907 220.867 166.601 220.867H165.312V227H164.086V219.891ZM168.144 227L166.474 223.807L167.758 223.802L169.452 226.937V227H168.144ZM179.338 226.028V227H175.769V226.028H179.338ZM176.11 219.891V227H174.885V219.891H176.11ZM186.851 227H185.332L185.342 226.028H186.851C187.29 226.028 187.658 225.932 187.954 225.74C188.254 225.548 188.478 225.273 188.628 224.915C188.781 224.557 188.857 224.131 188.857 223.636V223.25C188.857 222.866 188.813 222.526 188.726 222.229C188.641 221.933 188.514 221.684 188.345 221.482C188.179 221.281 187.974 221.128 187.729 221.023C187.489 220.919 187.21 220.867 186.895 220.867H185.303V219.891H186.895C187.367 219.891 187.798 219.97 188.188 220.13C188.579 220.286 188.916 220.512 189.199 220.809C189.486 221.105 189.705 221.46 189.858 221.873C190.011 222.286 190.088 222.749 190.088 223.26V223.636C190.088 224.147 190.011 224.609 189.858 225.022C189.705 225.436 189.486 225.791 189.199 226.087C188.913 226.38 188.571 226.606 188.174 226.766C187.78 226.922 187.339 227 186.851 227ZM186.011 219.891V227H184.785V219.891H186.011ZM204.591 225.403L206.007 219.891H206.749L206.666 221.312L205.152 227H204.381L204.591 225.403ZM203.531 219.891L204.679 225.359L204.781 227H203.961L202.315 219.891H203.531ZM208.355 225.345L209.488 219.891H210.709L209.063 227H208.243L208.355 225.345ZM207.037 219.891L208.438 225.418L208.644 227H207.872L206.383 221.312L206.305 219.891H207.037ZM217.426 219.891V227H216.2V219.891H217.426ZM226.228 219.891V227H225.012V219.891H226.228ZM228.459 219.891V220.867H222.8V219.891H228.459ZM238.594 222.859V223.831H234.819V222.859H238.594ZM235.122 219.891V227H233.896V219.891H235.122ZM239.536 219.891V227H238.315V219.891H239.536ZM253.712 219.891V227H252.486V219.891H253.712ZM256.612 223.001V223.973H253.399V223.001H256.612ZM257.018 219.891V220.867H253.399V219.891H257.018ZM268.163 223.25V223.641C268.163 224.178 268.093 224.66 267.953 225.086C267.813 225.512 267.613 225.875 267.353 226.175C267.095 226.474 266.786 226.704 266.425 226.863C266.063 227.02 265.663 227.098 265.224 227.098C264.787 227.098 264.389 227.02 264.027 226.863C263.669 226.704 263.358 226.474 263.095 226.175C262.831 225.875 262.626 225.512 262.479 225.086C262.336 224.66 262.265 224.178 262.265 223.641V223.25C262.265 222.713 262.336 222.233 262.479 221.81C262.623 221.383 262.825 221.02 263.085 220.721C263.349 220.418 263.66 220.188 264.018 220.032C264.379 219.873 264.778 219.793 265.214 219.793C265.653 219.793 266.054 219.873 266.415 220.032C266.776 220.188 267.087 220.418 267.348 220.721C267.608 221.02 267.808 221.383 267.948 221.81C268.091 222.233 268.163 222.713 268.163 223.25ZM266.938 223.641V223.24C266.938 222.843 266.898 222.493 266.82 222.19C266.745 221.884 266.633 221.629 266.483 221.424C266.337 221.215 266.156 221.059 265.941 220.955C265.727 220.848 265.484 220.794 265.214 220.794C264.944 220.794 264.703 220.848 264.491 220.955C264.28 221.059 264.099 221.215 263.949 221.424C263.803 221.629 263.69 221.884 263.612 222.19C263.534 222.493 263.495 222.843 263.495 223.24V223.641C263.495 224.038 263.534 224.389 263.612 224.695C263.69 225.001 263.804 225.26 263.954 225.472C264.107 225.68 264.289 225.838 264.501 225.945C264.713 226.049 264.953 226.102 265.224 226.102C265.497 226.102 265.74 226.049 265.951 225.945C266.163 225.838 266.342 225.68 266.488 225.472C266.635 225.26 266.745 225.001 266.82 224.695C266.898 224.389 266.938 224.038 266.938 223.641ZM279.558 223.25V223.641C279.558 224.178 279.488 224.66 279.348 225.086C279.208 225.512 279.007 225.875 278.747 226.175C278.49 226.474 278.181 226.704 277.819 226.863C277.458 227.02 277.058 227.098 276.618 227.098C276.182 227.098 275.783 227.02 275.422 226.863C275.064 226.704 274.753 226.474 274.489 226.175C274.226 225.875 274.021 225.512 273.874 225.086C273.731 224.66 273.659 224.178 273.659 223.641V223.25C273.659 222.713 273.731 222.233 273.874 221.81C274.017 221.383 274.219 221.02 274.479 220.721C274.743 220.418 275.054 220.188 275.412 220.032C275.773 219.873 276.172 219.793 276.608 219.793C277.048 219.793 277.448 219.873 277.81 220.032C278.171 220.188 278.482 220.418 278.742 220.721C279.003 221.02 279.203 221.383 279.343 221.81C279.486 222.233 279.558 222.713 279.558 223.25ZM278.332 223.641V223.24C278.332 222.843 278.293 222.493 278.215 222.19C278.14 221.884 278.028 221.629 277.878 221.424C277.731 221.215 277.551 221.059 277.336 220.955C277.121 220.848 276.879 220.794 276.608 220.794C276.338 220.794 276.097 220.848 275.886 220.955C275.674 221.059 275.493 221.215 275.344 221.424C275.197 221.629 275.085 221.884 275.007 222.19C274.929 222.493 274.89 222.843 274.89 223.24V223.641C274.89 224.038 274.929 224.389 275.007 224.695C275.085 225.001 275.199 225.26 275.349 225.472C275.502 225.68 275.684 225.838 275.896 225.945C276.107 226.049 276.348 226.102 276.618 226.102C276.892 226.102 277.134 226.049 277.346 225.945C277.557 225.838 277.736 225.68 277.883 225.472C278.029 225.26 278.14 225.001 278.215 224.695C278.293 224.389 278.332 224.038 278.332 223.641ZM287.349 227H285.83L285.84 226.028H287.349C287.788 226.028 288.156 225.932 288.452 225.74C288.752 225.548 288.976 225.273 289.126 224.915C289.279 224.557 289.355 224.131 289.355 223.636V223.25C289.355 222.866 289.312 222.526 289.224 222.229C289.139 221.933 289.012 221.684 288.843 221.482C288.677 221.281 288.472 221.128 288.228 221.023C287.987 220.919 287.708 220.867 287.393 220.867H285.801V219.891H287.393C287.865 219.891 288.296 219.97 288.687 220.13C289.077 220.286 289.414 220.512 289.697 220.809C289.984 221.105 290.203 221.46 290.356 221.873C290.509 222.286 290.586 222.749 290.586 223.26V223.636C290.586 224.147 290.509 224.609 290.356 225.022C290.203 225.436 289.984 225.791 289.697 226.087C289.411 226.38 289.069 226.606 288.672 226.766C288.278 226.922 287.837 227 287.349 227ZM286.509 219.891V227H285.283V219.891H286.509Z" fill="white"/>
</svg>
