<svg width="300" height="38" viewBox="0 0 300 38" fill="none" xmlns="http://www.w3.org/2000/svg">
<path d="M4.01134 37.3565V1.52766H15.3559C18.1838 1.52766 20.65 1.90516 22.7545 2.66117C24.8919 3.38366 26.536 4.51717 27.687 6.06171C28.8707 7.60624 29.4626 9.59334 29.4626 12.025C29.4626 13.6346 29.1667 15.113 28.5748 16.4605C27.9829 17.7743 27.1279 18.9246 26.0099 19.9103C24.9248 20.8634 23.5766 21.6352 21.9654 22.2266C23.0175 22.7194 23.8725 23.4912 24.5302 24.5429L32.718 37.3565H25.862C24.5466 37.3565 23.6259 36.8637 23.0998 35.878L16.4411 24.9864C16.178 24.5596 15.8655 24.2472 15.5039 24.0501C15.175 23.8529 14.6818 23.7544 14.0242 23.7544H11.6073V37.3565H4.01134ZM11.6073 18.4811H15.3066C17.5426 18.4811 19.2196 17.9557 20.3377 16.904C21.4885 15.8198 22.064 14.3906 22.064 12.6164C22.064 10.9082 21.505 9.59334 20.387 8.67371C19.3019 7.75409 17.6248 7.29378 15.3559 7.29378H11.6073V18.4811ZM28.0815 37.3565L25.418 31.2947L28.9201 31.9846L28.0815 37.3565ZM0.262695 37.3565V34.1531C0.262695 33.6603 0.410668 33.2828 0.706612 33.0196C1.00256 32.7564 1.41359 32.576 1.93972 32.4775L4.40593 31.9354L5.09647 37.3565H0.262695ZM5.09647 1.52766L4.40593 6.9488L1.93972 6.45597C1.41359 6.32488 1.00256 6.14352 0.706612 5.91386C0.410668 5.65068 0.262695 5.25642 0.262695 4.73106V1.52766H5.09647ZM10.5222 37.3565L11.1634 31.9354L13.6789 32.4775C14.205 32.576 14.6161 32.7564 14.912 33.0196C15.208 33.2828 15.3559 33.6603 15.3559 34.1531V37.3565H10.5222ZM28.0815 37.3565L28.7228 31.9354L31.2383 32.4775C31.7644 32.576 32.1754 32.7564 32.4714 33.0196C32.7673 33.2828 32.9153 33.6603 32.9153 34.1531V37.3565H28.0815ZM46.2725 37.7508C43.6748 37.7508 41.4222 37.1761 39.5151 36.0259C37.6079 34.8756 36.1282 33.2828 35.0759 31.2454C34.0236 29.1755 33.4975 26.7774 33.4975 24.0501C33.4975 21.717 34.0072 19.5978 35.0266 17.6925C36.0789 15.7872 37.5421 14.2752 39.4164 13.1585C41.2907 12.0417 43.461 11.4829 45.9272 11.4829C48.1961 11.4829 50.1691 11.9589 51.8461 12.9121C53.5231 13.8652 54.822 15.2116 55.7427 16.9533C56.6963 18.6614 57.1731 20.7156 57.1731 23.1137C57.1731 24.0668 57.0745 24.74 56.8772 25.1343C56.7127 25.5286 56.2853 25.7257 55.5947 25.7257H40.4522C40.4522 25.8243 40.4522 25.9228 40.4522 26.0214C40.4851 26.0874 40.518 26.1692 40.5509 26.2678C40.8468 28.3702 41.5374 29.9315 42.6225 30.9497C43.7076 31.9679 45.1215 32.4775 46.8644 32.4775C47.7193 32.4775 48.5579 32.3129 49.3799 31.9846C50.2349 31.6229 51.0404 31.2622 51.7968 30.9004C52.5531 30.5387 53.1943 30.3583 53.7204 30.3583C54.2137 30.3583 54.6411 30.5554 55.0028 30.9497L57.0251 33.4631C56.0715 34.5474 54.9864 35.4019 53.7697 36.0259C52.586 36.6498 51.3529 37.0933 50.0704 37.3565C48.788 37.6197 47.5221 37.7508 46.2725 37.7508ZM40.5509 21.6352H50.9583C50.9583 20.1567 50.5472 18.9079 49.7252 17.8897C48.936 16.8715 47.7193 16.3619 46.0752 16.3619C44.4968 16.3619 43.2472 16.8222 42.3265 17.7418C41.4387 18.6614 40.8468 19.9596 40.5509 21.6352ZM68.2903 37.7508C66.7119 37.7508 65.1993 37.6197 63.7524 37.3565C62.3385 37.0933 61.0889 36.7819 60.0038 36.4201V32.0832L63.2592 31.7382C63.6209 32.0665 64.328 32.3622 65.3801 32.6253C66.4324 32.8885 67.4847 33.0196 68.5369 33.0196C69.7865 33.0196 70.7071 32.7899 71.299 32.3296C71.9239 31.8368 72.2362 31.1961 72.2362 30.4076C72.2362 29.6516 71.9239 29.0769 71.299 28.6827C70.6743 28.2559 69.9016 27.9109 68.9808 27.6477C68.0601 27.352 67.1394 27.0396 66.2187 26.7113C65.0678 26.3171 64.0155 25.841 63.0619 25.2821C62.1412 24.6907 61.4178 23.9347 60.8916 23.0151C60.3656 22.062 60.1025 20.8792 60.1025 19.4667C60.1025 17.8897 60.4971 16.5097 61.2862 15.3269C62.1084 14.1441 63.2592 13.2078 64.7389 12.5178C66.2187 11.8278 67.945 11.4829 69.918 11.4829C71.4963 11.4829 72.8939 11.6967 74.1105 12.1235C75.3272 12.5503 76.4945 13.0599 77.6125 13.6513V16.8054L74.2585 17.4461C73.6995 17.249 73.0912 17.0351 72.4335 16.8054C71.7759 16.5758 71.0031 16.4605 70.1153 16.4605C69.4247 16.4605 68.8165 16.559 68.2903 16.7561C67.7642 16.9208 67.3696 17.1829 67.1065 17.5447C66.8435 17.9064 66.7119 18.35 66.7119 18.8753C66.7119 19.5328 67.0243 20.0749 67.649 20.5017C68.3067 20.9285 69.1124 21.2902 70.0659 21.5859C71.0196 21.8491 71.9239 22.1448 72.7788 22.473C73.8639 22.8673 74.8504 23.3276 75.7382 23.8529C76.659 24.3783 77.3824 25.0682 77.9085 25.9228C78.4675 26.7774 78.747 27.8774 78.747 29.2248C78.747 30.9665 78.3195 32.4775 77.4645 33.7588C76.6425 35.0077 75.4423 35.9933 73.8639 36.7158C72.3185 37.4058 70.4605 37.7508 68.2903 37.7508ZM72.7294 15.3269L77.6125 16.559V20.4031H75.097C74.5709 20.4031 74.1763 20.2553 73.9132 19.9596C73.6502 19.6639 73.4693 19.2528 73.3707 18.7275L72.7294 15.3269ZM64.8869 34.0545L60.0038 32.8225V28.9784H62.5193C63.0455 28.9784 63.4237 29.1262 63.6538 29.4219C63.9169 29.7176 64.1142 30.1286 64.2457 30.654L64.8869 34.0545ZM91.4445 37.7508C89.1098 37.7508 87.3177 37.1101 86.0682 35.8287C84.8186 34.5148 84.1938 32.7406 84.1938 30.5061V16.8547H81.8756C81.5139 16.8547 81.2015 16.7394 80.9384 16.5097C80.6753 16.2801 80.5439 15.9351 80.5439 15.4748V12.7149L84.6377 11.9757L86.0188 5.47031C86.1833 4.74782 86.6929 4.38608 87.5479 4.38608H91.1979V12.025H97.6102V16.8547H91.1979V30.0133C91.1979 30.7033 91.3623 31.2622 91.6911 31.6889C92.0199 32.0832 92.4803 32.2803 93.0722 32.2803C93.4339 32.2803 93.7462 32.2311 94.0093 32.1325C94.2724 32.0014 94.5026 31.8861 94.6999 31.7875C94.8972 31.6564 95.1109 31.5904 95.3411 31.5904C95.6699 31.5904 95.9658 31.7875 96.2289 32.1818L98.3501 35.533C97.3961 36.2555 96.3111 36.8144 95.0945 37.2087C93.9107 37.5704 92.6941 37.7508 91.4445 37.7508ZM113.18 11.4829C115.778 11.4829 118.03 12.025 119.937 13.1092C121.845 14.1609 123.325 15.6719 124.376 17.6432C125.429 19.6146 125.955 21.9141 125.955 24.5429C125.955 27.2042 125.429 29.5205 124.376 31.4918C123.357 33.4631 121.878 35.0077 119.937 36.1244C118.03 37.2087 115.778 37.7508 113.18 37.7508C110.615 37.7508 108.363 37.2087 106.422 36.1244C104.483 35.0077 102.97 33.4631 101.885 31.4918C100.833 29.5205 100.306 27.2042 100.306 24.5429C100.306 21.9141 100.833 19.6146 101.885 17.6432C102.97 15.6719 104.483 14.1609 106.422 13.1092C108.363 12.025 110.615 11.4829 113.18 11.4829ZM113.18 32.5268C115.088 32.5268 116.485 31.8693 117.372 30.5554C118.294 29.208 118.753 27.2209 118.753 24.5922C118.753 22.8505 118.556 21.4055 118.162 20.2553C117.767 19.0725 117.159 18.1854 116.337 17.594C115.515 17.0026 114.462 16.7069 113.18 16.7069C111.897 16.7069 110.829 17.0026 109.974 17.594C109.152 18.1854 108.528 19.0725 108.099 20.2553C107.705 21.4055 107.508 22.8505 107.508 24.5922C107.508 27.2209 107.968 29.208 108.889 30.5554C109.81 31.8693 111.24 32.5268 113.18 32.5268ZM132.094 37.3565V11.8771H136.385C137.305 11.8771 137.897 12.2881 138.161 13.1092L138.555 14.7355C139.443 13.8159 140.413 13.0432 141.465 12.4192C142.55 11.7953 143.8 11.4829 145.214 11.4829C146.792 11.4829 148.091 11.9096 149.11 12.7642C150.13 13.5853 150.903 14.6863 151.429 16.0662C152.218 14.4891 153.369 13.3389 154.881 12.6164C156.394 11.8604 157.956 11.4829 159.567 11.4829C162.461 11.4829 164.664 12.3532 166.177 14.0949C167.722 15.803 168.495 18.1528 168.495 21.1424V37.3565H161.54V21.1424C161.54 19.7299 161.227 18.6614 160.603 17.9389C159.979 17.1829 159.041 16.8054 157.792 16.8054C156.674 16.8054 155.72 17.1829 154.931 17.9389C154.174 18.695 153.796 19.7624 153.796 21.1424V37.3565H146.842V21.1424C146.842 19.5978 146.529 18.4978 145.904 17.8404C145.28 17.1504 144.375 16.8054 143.192 16.8054C142.402 16.8054 141.663 16.9858 140.972 17.3475C140.314 17.7093 139.69 18.2021 139.098 18.826V37.3565H132.094ZM128.345 37.3565V34.1531C128.345 33.6603 128.493 33.2828 128.789 33.0196C129.117 32.7564 129.546 32.576 130.071 32.4775L132.538 31.9354L133.179 37.3565H128.345ZM138.013 37.3565L138.654 31.9354L141.12 32.4775C141.646 32.576 142.057 32.7564 142.353 33.0196C142.682 33.2828 142.846 33.6603 142.846 34.1531V37.3565H138.013ZM152.711 37.3565L153.402 31.9354L155.868 32.4775C156.394 32.576 156.805 32.7564 157.101 33.0196C157.397 33.2828 157.545 33.6603 157.545 34.1531V37.3565H152.711ZM133.179 11.8771L132.538 17.2983L130.071 16.8054C129.546 16.6743 129.117 16.493 128.789 16.2633C128.493 16.0001 128.345 15.6059 128.345 15.0805V11.8771H133.179ZM167.41 37.3565L168.051 31.9354L170.566 32.4775C171.092 32.576 171.504 32.7564 171.8 33.0196C172.096 33.2828 172.243 33.6603 172.243 34.1531V37.3565H167.41ZM178.191 37.3565V11.8771H185.195V37.3565H178.191ZM174.442 37.3565V34.1531C174.442 33.6603 174.59 33.2828 174.886 33.0196C175.215 32.7564 175.642 32.576 176.169 32.4775L178.635 31.9354L179.276 37.3565H174.442ZM184.11 37.3565L184.751 31.9354L187.217 32.4775C187.743 32.576 188.154 32.7564 188.45 33.0196C188.779 33.2828 188.944 33.6603 188.944 34.1531V37.3565H184.11ZM179.276 11.8771L178.635 17.2983L176.169 16.8054C175.642 16.6743 175.215 16.493 174.886 16.2633C174.59 16.0001 174.442 15.6059 174.442 15.0805V11.8771H179.276ZM181.792 8.87084C180.673 8.87084 179.686 8.45982 178.832 7.63877C177.977 6.81771 177.55 5.84782 177.55 4.73106C177.55 3.54826 177.977 2.5626 178.832 1.77407C179.686 0.953014 180.673 0.541992 181.792 0.541992C182.975 0.541992 183.994 0.953014 184.85 1.77407C185.738 2.5626 186.181 3.54826 186.181 4.73106C186.181 5.84782 185.738 6.81771 184.85 7.63877C183.994 8.45982 182.975 8.87084 181.792 8.87084ZM194.857 37.3565V11.8771H199.148C200.068 11.8771 200.66 12.2881 200.923 13.1092L201.318 14.8341C202.371 13.8484 203.505 13.0432 204.721 12.4192C205.938 11.7953 207.352 11.4829 208.963 11.4829C210.805 11.4829 212.367 11.9096 213.649 12.7642C214.932 13.5853 215.901 14.7188 216.559 16.1648C217.217 17.6107 217.546 19.2696 217.546 21.1424V37.3565H210.591V21.1424C210.591 19.7949 210.263 18.7442 209.605 17.9882C208.98 17.1997 208.043 16.8054 206.793 16.8054C205.873 16.8054 205.001 17.0193 204.179 17.4461C203.357 17.8404 202.584 18.3825 201.861 19.0725V37.3565H194.857ZM191.108 37.3565V34.1531C191.108 33.6603 191.256 33.2828 191.552 33.0196C191.88 32.7564 192.309 32.576 192.834 32.4775L195.301 31.9354L195.942 37.3565H191.108ZM200.776 37.3565L201.417 31.9354L203.883 32.4775C204.409 32.576 204.82 32.7564 205.116 33.0196C205.445 33.2828 205.609 33.6603 205.609 34.1531V37.3565H200.776ZM216.461 37.3565L217.151 31.9354L219.617 32.4775C220.143 32.576 220.554 32.7564 220.85 33.0196C221.146 33.2828 221.294 33.6603 221.294 34.1531V37.3565H216.461ZM195.942 11.8771L195.301 17.2983L192.834 16.8054C192.309 16.6743 191.88 16.493 191.552 16.2633C191.256 16.0001 191.108 15.6059 191.108 15.0805V11.8771H195.942ZM232.65 37.7508C230.743 37.7508 229.083 37.2087 227.668 36.1244C226.287 35.0077 225.219 33.4631 224.462 31.4918C223.706 29.5205 223.327 27.2535 223.327 24.6907C223.327 22.2266 223.771 19.9921 224.659 17.9882C225.547 15.9844 226.814 14.3906 228.457 13.2078C230.102 12.025 232.025 11.4336 234.228 11.4336C235.609 11.4336 236.777 11.6475 237.73 12.0743C238.684 12.4685 239.539 13.0106 240.295 13.7006V0.541992H247.25V37.3565H242.958C242.038 37.3565 241.463 36.9455 241.232 36.1244L240.69 33.956C239.671 35.1062 238.487 36.0259 237.138 36.7158C235.823 37.4058 234.327 37.7508 232.65 37.7508ZM235.067 32.3789C236.218 32.3789 237.204 32.1493 238.026 31.6889C238.849 31.1961 239.604 30.5229 240.295 29.6683V18.5796C239.638 17.8571 238.947 17.3475 238.223 17.0518C237.533 16.7561 236.76 16.6083 235.905 16.6083C234.755 16.6083 233.768 16.9208 232.946 17.5447C232.156 18.1361 231.549 19.0399 231.121 20.2553C230.726 21.4706 230.529 22.9491 230.529 24.6907C230.529 27.1874 230.891 29.0937 231.614 30.4076C232.371 31.7215 233.522 32.3789 235.067 32.3789ZM241.38 0.541992L240.739 5.96314L238.223 5.47031C237.698 5.33921 237.286 5.15785 236.99 4.92819C236.694 4.66502 236.546 4.27076 236.546 3.7454V0.541992H241.38ZM246.165 37.3565L246.806 31.9354L249.321 32.4775C249.848 32.576 250.258 32.7564 250.554 33.0196C250.85 33.2828 250.998 33.6603 250.998 34.1531V37.3565H246.165ZM265.822 37.7508C263.225 37.7508 260.973 37.1761 259.065 36.0259C257.158 34.8756 255.678 33.2828 254.626 31.2454C253.574 29.1755 253.047 26.7774 253.047 24.0501C253.047 21.717 253.557 19.5978 254.576 17.6925C255.629 15.7872 257.092 14.2752 258.966 13.1585C260.84 12.0417 263.011 11.4829 265.477 11.4829C267.746 11.4829 269.719 11.9589 271.396 12.9121C273.073 13.8652 274.372 15.2116 275.292 16.9533C276.246 18.6614 276.723 20.7156 276.723 23.1137C276.723 24.0668 276.624 24.74 276.427 25.1343C276.263 25.5286 275.835 25.7257 275.144 25.7257H260.002C260.002 25.8243 260.002 25.9228 260.002 26.0214C260.035 26.0874 260.068 26.1692 260.101 26.2678C260.397 28.3702 261.087 29.9315 262.172 30.9497C263.257 31.9679 264.672 32.4775 266.414 32.4775C267.269 32.4775 268.108 32.3129 268.93 31.9846C269.785 31.6229 270.591 31.2622 271.346 30.9004C272.103 30.5387 272.744 30.3583 273.27 30.3583C273.763 30.3583 274.191 30.5554 274.553 30.9497L276.575 33.4631C275.622 34.5474 274.537 35.4019 273.319 36.0259C272.136 36.6498 270.903 37.0933 269.62 37.3565C268.338 37.6197 267.072 37.7508 265.822 37.7508ZM260.101 21.6352H270.508C270.508 20.1567 270.098 18.9079 269.275 17.8897C268.486 16.8715 267.269 16.3619 265.625 16.3619C264.047 16.3619 262.798 16.8222 261.876 17.7418C260.988 18.6614 260.397 19.9596 260.101 21.6352ZM282.908 37.3565V11.8771H287.051C287.742 11.8771 288.218 12.0082 288.482 12.2714C288.778 12.5346 288.975 12.9781 289.074 13.602L289.517 16.2633C290.405 14.7848 291.441 13.6188 292.625 12.7642C293.809 11.8771 295.124 11.4336 296.571 11.4336C297.195 11.4336 297.755 11.5154 298.248 11.68C298.741 11.8111 299.168 12.0082 299.53 12.2714L298.642 17.3968C298.576 17.7251 298.445 17.9557 298.248 18.0868C298.083 18.2179 297.836 18.2839 297.508 18.2839C297.409 18.2839 297.081 18.2514 296.522 18.1854C295.962 18.0868 295.453 18.0375 294.992 18.0375C293.875 18.0375 292.888 18.35 292.033 18.9739C291.178 19.5653 290.471 20.4524 289.912 21.6352V37.3565H282.908ZM288.827 37.3565L289.468 31.9354L291.934 32.4775C292.46 32.576 292.872 32.7564 293.167 33.0196C293.496 33.2828 293.661 33.6603 293.661 34.1531V37.3565H288.827ZM279.159 37.3565V34.1531C279.159 33.6603 279.307 33.2828 279.603 33.0196C279.932 32.7564 280.36 32.576 280.886 32.4775L283.352 31.9354L283.993 37.3565H279.159ZM283.993 11.8771L283.352 17.2983L280.886 16.8054C280.36 16.6743 279.932 16.493 279.603 16.2633C279.307 16.0001 279.159 15.6059 279.159 15.0805V11.8771H283.993Z" fill="white"/>
</svg>
